<svg height="720" preserveAspectRatio="none" viewBox="0 0 1280 720" width="1280" xmlns="http://www.w3.org/2000/svg" xmlns:xlink="http://www.w3.org/1999/xlink"><linearGradient id="a"><stop offset="0" stop-color="#e26081"/><stop offset="1" stop-color="#d44947"/></linearGradient><linearGradient id="b" gradientUnits="userSpaceOnUse" spreadMethod="pad" x1="0" x2="0" xlink:href="#a" y1="-40" y2="40"/><linearGradient id="c"><stop offset="0" stop-color="#f37f98"/><stop offset="1" stop-color="#d74854"/></linearGradient><linearGradient id="d" gradientUnits="userSpaceOnUse" spreadMethod="pad" x1="-.25" x2="-.25" xlink:href="#c" y1="-40.25" y2="3.25"/><linearGradient id="e" gradientUnits="userSpaceOnUse" spreadMethod="pad" x1="-90" x2="-90" xlink:href="#a" y1="-40" y2="40"/><linearGradient id="f" gradientUnits="userSpaceOnUse" spreadMethod="pad" x1="-90.25" x2="-90.25" xlink:href="#c" y1="-40.25" y2="3.25"/><linearGradient id="g" gradientUnits="userSpaceOnUse" spreadMethod="pad" x1="-180" x2="-180" xlink:href="#a" y1="-40" y2="40"/><linearGradient id="h" gradientUnits="userSpaceOnUse" spreadMethod="pad" x1="-180.25" x2="-180.25" xlink:href="#c" y1="-40.25" y2="3.25"/><linearGradient id="i" gradientUnits="userSpaceOnUse" spreadMethod="pad" x1="-270" x2="-270" xlink:href="#a" y1="-40" y2="40"/><linearGradient id="j" gradientUnits="userSpaceOnUse" spreadMethod="pad" x1="-270.25" x2="-270.25" xlink:href="#c" y1="-40.25" y2="3.25"/><linearGradient id="k"><stop offset="0" stop-color="#a875e9"/><stop offset=".51764705882" stop-color="#905ae5"/><stop offset="1" stop-color="#6548b9"/></linearGradient><linearGradient id="l" gradientUnits="userSpaceOnUse" spreadMethod="pad" x1="0" x2="0" xlink:href="#k" y1="-40" y2="40"/><linearGradient id="m"><stop offset="0" stop-color="#c28def"/><stop offset="1" stop-color="#a471e8"/></linearGradient><linearGradient id="n" gradientUnits="userSpaceOnUse" spreadMethod="pad" x1="-.25" x2="-.25" xlink:href="#m" y1="-40.25" y2="3.25"/><linearGradient id="o" gradientUnits="userSpaceOnUse" spreadMethod="pad" x1="-.05" x2="-.05" xlink:href="#k" y1="-39.975" y2="39.975"/><linearGradient id="p" gradientUnits="userSpaceOnUse" spreadMethod="pad" x1="0" x2="0" xlink:href="#m" y1="-40" y2="2"/><linearGradient id="q" gradientUnits="userSpaceOnUse" spreadMethod="pad" x1="0" x2="0" xlink:href="#m" y1="-40" y2="1.5"/><linearGradient id="r" gradientUnits="userSpaceOnUse" spreadMethod="pad" x1="0" x2="0" xlink:href="#m" y1="-39.65" y2="1.75"/><linearGradient id="s"><stop offset="0" stop-color="#71cf93"/><stop offset="1" stop-color="#59b15c"/></linearGradient><linearGradient id="t" gradientUnits="userSpaceOnUse" spreadMethod="pad" x1="0" x2="0" xlink:href="#s" y1="-40" y2="40"/><linearGradient id="u"><stop offset="0" stop-color="#85dfaf"/><stop offset="1" stop-color="#69c581"/></linearGradient><linearGradient id="v" gradientUnits="userSpaceOnUse" spreadMethod="pad" x1="-.25" x2="-.25" xlink:href="#u" y1="-40.25" y2="3.25"/><linearGradient id="w" gradientUnits="userSpaceOnUse" spreadMethod="pad" x1="-90" x2="-90" xlink:href="#s" y1="-40" y2="40"/><linearGradient id="x" gradientUnits="userSpaceOnUse" spreadMethod="pad" x1="-90.25" x2="-90.25" xlink:href="#u" y1="-40.25" y2="3.25"/><linearGradient id="y" gradientUnits="userSpaceOnUse" spreadMethod="pad" x1="-180" x2="-180" xlink:href="#s" y1="-40" y2="40"/><linearGradient id="z" gradientUnits="userSpaceOnUse" spreadMethod="pad" x1="-180.25" x2="-180.25" xlink:href="#u" y1="-40.25" y2="3.25"/><linearGradient id="A" gradientUnits="userSpaceOnUse" spreadMethod="pad" x1="-270" x2="-270" xlink:href="#s" y1="-40" y2="40"/><linearGradient id="B" gradientUnits="userSpaceOnUse" spreadMethod="pad" x1="-270.25" x2="-270.25" xlink:href="#u" y1="-40.25" y2="3.25"/><linearGradient id="C"><stop offset="0" stop-color="#ffcd59"/><stop offset="1" stop-color="#f7a41b"/></linearGradient><linearGradient id="D" gradientUnits="userSpaceOnUse" spreadMethod="pad" x1="0" x2="0" xlink:href="#C" y1="-40" y2="40"/><linearGradient id="E"><stop offset="0" stop-color="#ffe383"/><stop offset="1" stop-color="#ffb43c"/></linearGradient><linearGradient id="F" gradientUnits="userSpaceOnUse" spreadMethod="pad" x1="-.25" x2="-.25" xlink:href="#E" y1="-40.25" y2="3.25"/><linearGradient id="G" gradientUnits="userSpaceOnUse" spreadMethod="pad" x1="-90" x2="-90" xlink:href="#C" y1="-40" y2="40"/><linearGradient id="H" gradientUnits="userSpaceOnUse" spreadMethod="pad" x1="-90.25" x2="-90.25" xlink:href="#E" y1="-40.25" y2="3.25"/><linearGradient id="I" gradientUnits="userSpaceOnUse" spreadMethod="pad" x1="-180" x2="-180" xlink:href="#C" y1="-40" y2="40"/><linearGradient id="J" gradientUnits="userSpaceOnUse" spreadMethod="pad" x1="-180.25" x2="-180.25" xlink:href="#E" y1="-40.25" y2="3.25"/><linearGradient id="K" gradientUnits="userSpaceOnUse" spreadMethod="pad" x1="-270" x2="-270" xlink:href="#C" y1="-40" y2="40"/><linearGradient id="L" gradientUnits="userSpaceOnUse" spreadMethod="pad" x1="-270.25" x2="-270.25" xlink:href="#E" y1="-40.25" y2="3.25"/><linearGradient id="M"><stop offset="0" stop-color="#ff99e7"/><stop offset="1" stop-color="#ff72a9"/></linearGradient><linearGradient id="N" gradientUnits="userSpaceOnUse" spreadMethod="pad" x1="-270" x2="-270" xlink:href="#M" y1="-40" y2="40"/><linearGradient id="O"><stop offset="0" stop-color="#ffb6ea"/><stop offset="1" stop-color="#ff94e0"/></linearGradient><linearGradient id="P" gradientUnits="userSpaceOnUse" spreadMethod="pad" x1="-270.25" x2="-270.25" xlink:href="#O" y1="-40.25" y2="3.25"/><linearGradient id="Q" gradientUnits="userSpaceOnUse" spreadMethod="pad" x1="-180" x2="-180" xlink:href="#M" y1="-40" y2="40"/><linearGradient id="R" gradientUnits="userSpaceOnUse" spreadMethod="pad" x1="-180.25" x2="-180.25" xlink:href="#O" y1="-40.25" y2="3.25"/><linearGradient id="S" gradientUnits="userSpaceOnUse" spreadMethod="pad" x1="-90" x2="-90" xlink:href="#M" y1="-40" y2="40"/><linearGradient id="T" gradientUnits="userSpaceOnUse" spreadMethod="pad" x1="-90.25" x2="-90.25" xlink:href="#O" y1="-40.25" y2="3.25"/><linearGradient id="U" gradientUnits="userSpaceOnUse" spreadMethod="pad" x1="0" x2="0" xlink:href="#M" y1="-40" y2="40"/><linearGradient id="V" gradientUnits="userSpaceOnUse" spreadMethod="pad" x1="-.25" x2="-.25" xlink:href="#O" y1="-40.25" y2="3.25"/><linearGradient id="W"><stop offset="0" stop-color="#7baaeb"/><stop offset="1" stop-color="#6c75e9"/></linearGradient><linearGradient id="X" gradientUnits="userSpaceOnUse" spreadMethod="pad" x1="0" x2="0" xlink:href="#W" y1="-40" y2="40"/><linearGradient id="Y"><stop offset="0" stop-color="#95c2f0"/><stop offset="1" stop-color="#6b8ee9"/></linearGradient><linearGradient id="Z" gradientUnits="userSpaceOnUse" spreadMethod="pad" x1="-.25" x2="-.25" xlink:href="#Y" y1="-40.25" y2="3.25"/><linearGradient id="aa" gradientUnits="userSpaceOnUse" spreadMethod="pad" x1="-90" x2="-90" xlink:href="#W" y1="-40" y2="40"/><linearGradient id="ab" gradientUnits="userSpaceOnUse" spreadMethod="pad" x1="-90.25" x2="-90.25" xlink:href="#Y" y1="-40.25" y2="3.25"/><linearGradient id="ac" gradientUnits="userSpaceOnUse" spreadMethod="pad" x1="-180" x2="-180" xlink:href="#W" y1="-40" y2="40"/><linearGradient id="ad" gradientUnits="userSpaceOnUse" spreadMethod="pad" x1="-180.25" x2="-180.25" xlink:href="#Y" y1="-40.25" y2="3.25"/><linearGradient id="ae" gradientUnits="userSpaceOnUse" spreadMethod="pad" x1="-270" x2="-270" xlink:href="#W" y1="-40" y2="40"/><linearGradient id="af" gradientUnits="userSpaceOnUse" spreadMethod="pad" x1="-270.25" x2="-270.25" xlink:href="#Y" y1="-40.25" y2="3.25"/><linearGradient id="ag" gradientUnits="userSpaceOnUse" spreadMethod="pad" x1="-8.8" x2="-8.8" y1="-15.35" y2="1.45"><stop offset="0" stop-color="#ba4b61"/><stop offset="1" stop-color="#db5566"/></linearGradient><linearGradient id="ah" gradientUnits="userSpaceOnUse" spreadMethod="pad" x1="125.05" x2="125.05" xlink:href="#a" y1="-28.05" y2="28.15"/><linearGradient id="ai" gradientUnits="userSpaceOnUse" spreadMethod="pad" x1="82.05" x2="82.05" xlink:href="#a" y1="-28.1" y2="28.1"/><linearGradient id="aj" gradientUnits="userSpaceOnUse" spreadMethod="pad" x1="-9.95" x2="-9.95" y1="-.8" y2="18.6"><stop offset="0" stop-color="#b04350"/><stop offset="1" stop-color="#d64c50"/></linearGradient><linearGradient id="ak" gradientUnits="userSpaceOnUse" spreadMethod="pad" x1="42.05" x2="42.05" xlink:href="#a" y1="-28.1" y2="28.1"/><linearGradient id="al" gradientUnits="userSpaceOnUse" spreadMethod="pad" x1=".05" x2=".05" xlink:href="#a" y1="-28.05" y2="28.15"/><linearGradient id="am" gradientUnits="userSpaceOnUse" spreadMethod="pad" x1="-44.95" x2="-44.95" xlink:href="#a" y1="-28.1" y2="28.1"/><linearGradient id="an" gradientUnits="userSpaceOnUse" spreadMethod="pad" x1="-11.05" x2="-11.05" y1="-5.6" y2="16.5"><stop offset="0" stop-color="#b74757"/><stop offset="1" stop-color="#d64d53"/></linearGradient><linearGradient id="ao" gradientUnits="userSpaceOnUse" spreadMethod="pad" x1="-88.9" x2="-88.9" xlink:href="#a" y1="-28.1" y2="28.1"/><linearGradient id="ap" gradientUnits="userSpaceOnUse" spreadMethod="pad" x1="-11.05" x2="-11.05" y1="-5.6" y2="16.5"><stop offset="0" stop-color="#7f51c4"/><stop offset="1" stop-color="#774fcb"/></linearGradient><linearGradient id="aq" gradientUnits="userSpaceOnUse" spreadMethod="pad" x1="-88.9" x2="-88.9" xlink:href="#k" y1="-28.1" y2="28.1"/><linearGradient id="ar" gradientUnits="userSpaceOnUse" spreadMethod="pad" x1="-44.95" x2="-44.95" xlink:href="#k" y1="-28.1" y2="28.1"/><linearGradient id="as" gradientUnits="userSpaceOnUse" spreadMethod="pad" x1=".05" x2=".05" xlink:href="#k" y1="-28.05" y2="28.15"/><linearGradient id="at" gradientUnits="userSpaceOnUse" spreadMethod="pad" x1="-9.95" x2="-9.95" y1="-.8" y2="18.6"><stop offset="0" stop-color="#7a4cc1"/><stop offset="1" stop-color="#744ec9"/></linearGradient><linearGradient id="au" gradientUnits="userSpaceOnUse" spreadMethod="pad" x1="42.05" x2="42.05" xlink:href="#k" y1="-28.1" y2="28.1"/><linearGradient id="av" gradientUnits="userSpaceOnUse" spreadMethod="pad" x1="82.05" x2="82.05" xlink:href="#k" y1="-28.1" y2="28.1"/><linearGradient id="aw" gradientUnits="userSpaceOnUse" spreadMethod="pad" x1="-8.8" x2="-8.8" y1="-15.35" y2="1.45"><stop offset="0" stop-color="#885ac9"/><stop offset="1" stop-color="#925ce5"/></linearGradient><linearGradient id="ax" gradientUnits="userSpaceOnUse" spreadMethod="pad" x1="125.05" x2="125.05" xlink:href="#k" y1="-28.05" y2="28.15"/><linearGradient id="ay" gradientUnits="userSpaceOnUse" spreadMethod="pad" x1="-8.8" x2="-8.8" y1="-15.35" y2="1.45"><stop offset="0" stop-color="#5cac73"/><stop offset="1" stop-color="#65c078"/></linearGradient><linearGradient id="az" gradientUnits="userSpaceOnUse" spreadMethod="pad" x1="125.05" x2="125.05" xlink:href="#s" y1="-28.05" y2="28.15"/><linearGradient id="aA" gradientUnits="userSpaceOnUse" spreadMethod="pad" x1="82.05" x2="82.05" xlink:href="#s" y1="-28.1" y2="28.1"/><linearGradient id="aB" gradientUnits="userSpaceOnUse" spreadMethod="pad" x1="-9.95" x2="-9.95" y1="-.8" y2="18.6"><stop offset="0" stop-color="#55a164"/><stop offset="1" stop-color="#5db666"/></linearGradient><linearGradient id="aC" gradientUnits="userSpaceOnUse" spreadMethod="pad" x1="42.05" x2="42.05" xlink:href="#s" y1="-28.1" y2="28.1"/><linearGradient id="aD" gradientUnits="userSpaceOnUse" spreadMethod="pad" x1=".05" x2=".05" xlink:href="#s" y1="-28.05" y2="28.15"/><linearGradient id="aE" gradientUnits="userSpaceOnUse" spreadMethod="pad" x1="-44.95" x2="-44.95" xlink:href="#s" y1="-28.1" y2="28.1"/><linearGradient id="aF" gradientUnits="userSpaceOnUse" spreadMethod="pad" x1="-11.05" x2="-11.05" y1="-5.6" y2="16.5"><stop offset="0" stop-color="#58a76a"/><stop offset="1" stop-color="#5eb768"/></linearGradient><linearGradient id="aG" gradientUnits="userSpaceOnUse" spreadMethod="pad" x1="-88.9" x2="-88.9" xlink:href="#s" y1="-28.1" y2="28.1"/><linearGradient id="aH" gradientUnits="userSpaceOnUse" spreadMethod="pad" x1="-11.05" x2="-11.05" y1="-5.6" y2="16.5"><stop offset="0" stop-color="#647ec9"/><stop offset="1" stop-color="#6f80e9"/></linearGradient><linearGradient id="aI" gradientUnits="userSpaceOnUse" spreadMethod="pad" x1="-88.9" x2="-88.9" xlink:href="#W" y1="-28.1" y2="28.1"/><linearGradient id="aJ" gradientUnits="userSpaceOnUse" spreadMethod="pad" x1="-44.95" x2="-44.95" xlink:href="#W" y1="-28.1" y2="28.1"/><linearGradient id="aK" gradientUnits="userSpaceOnUse" spreadMethod="pad" x1=".05" x2=".05" xlink:href="#W" y1="-28.05" y2="28.15"/><linearGradient id="aL" gradientUnits="userSpaceOnUse" spreadMethod="pad" x1="-9.95" x2="-9.95" y1="-.8" y2="18.6"><stop offset="0" stop-color="#6078c5"/><stop offset="1" stop-color="#6e7ee9"/></linearGradient><linearGradient id="aM" gradientUnits="userSpaceOnUse" spreadMethod="pad" x1="42.05" x2="42.05" xlink:href="#W" y1="-28.1" y2="28.1"/><linearGradient id="aN" gradientUnits="userSpaceOnUse" spreadMethod="pad" x1="82.05" x2="82.05" xlink:href="#W" y1="-28.1" y2="28.1"/><linearGradient id="aO" gradientUnits="userSpaceOnUse" spreadMethod="pad" x1="-8.8" x2="-8.8" y1="-15.35" y2="1.45"><stop offset="0" stop-color="#6788ca"/><stop offset="1" stop-color="#738fe9"/></linearGradient><linearGradient id="aP" gradientUnits="userSpaceOnUse" spreadMethod="pad" x1="125.05" x2="125.05" xlink:href="#W" y1="-28.05" y2="28.15"/><linearGradient id="aQ" gradientUnits="userSpaceOnUse" spreadMethod="pad" x1="-8.8" x2="-8.8" y1="-15.35" y2="1.45"><stop offset="0" stop-color="#de7cbb"/><stop offset="1" stop-color="#ff85c8"/></linearGradient><linearGradient id="aR" gradientUnits="userSpaceOnUse" spreadMethod="pad" x1="125.05" x2="125.05" xlink:href="#M" y1="-28.05" y2="28.15"/><linearGradient id="aS" gradientUnits="userSpaceOnUse" spreadMethod="pad" x1="82.05" x2="82.05" xlink:href="#M" y1="-28.1" y2="28.1"/><linearGradient id="aT" gradientUnits="userSpaceOnUse" spreadMethod="pad" x1="-9.95" x2="-9.95" y1="-.8" y2="18.6"><stop offset="0" stop-color="#d870a9"/><stop offset="1" stop-color="#ff78b3"/></linearGradient><linearGradient id="aU" gradientUnits="userSpaceOnUse" spreadMethod="pad" x1="42.05" x2="42.05" xlink:href="#M" y1="-28.1" y2="28.1"/><linearGradient id="aV" gradientUnits="userSpaceOnUse" spreadMethod="pad" x1=".05" x2=".05" xlink:href="#M" y1="-28.05" y2="28.15"/><linearGradient id="aW" gradientUnits="userSpaceOnUse" spreadMethod="pad" x1="-44.95" x2="-44.95" xlink:href="#M" y1="-28.1" y2="28.1"/><linearGradient id="aX" gradientUnits="userSpaceOnUse" spreadMethod="pad" x1="-11.05" x2="-11.05" y1="-5.6" y2="16.5"><stop offset="0" stop-color="#dd75b0"/><stop offset="1" stop-color="#ff7ab6"/></linearGradient><linearGradient id="aY" gradientUnits="userSpaceOnUse" spreadMethod="pad" x1="-88.9" x2="-88.9" xlink:href="#M" y1="-28.1" y2="28.1"/><linearGradient id="aZ" gradientUnits="userSpaceOnUse" spreadMethod="pad" x1="-8.8" x2="-8.8" y1="-15.35" y2="1.45"><stop offset="0" stop-color="#e9b343"/><stop offset="1" stop-color="#fbb83a"/></linearGradient><linearGradient id="a0" gradientUnits="userSpaceOnUse" spreadMethod="pad" x1="125.05" x2="125.05" xlink:href="#C" y1="-28.05" y2="28.15"/><linearGradient id="a1" gradientUnits="userSpaceOnUse" spreadMethod="pad" x1="82.05" x2="82.05" xlink:href="#C" y1="-28.1" y2="28.1"/><linearGradient id="a2" gradientUnits="userSpaceOnUse" spreadMethod="pad" x1="-9.95" x2="-9.95" y1="-.8" y2="18.6"><stop offset="0" stop-color="#e3a634"/><stop offset="1" stop-color="#f8ab26"/></linearGradient><linearGradient id="a3" gradientUnits="userSpaceOnUse" spreadMethod="pad" x1="42.05" x2="42.05" xlink:href="#C" y1="-28.1" y2="28.1"/><linearGradient id="a4" gradientUnits="userSpaceOnUse" spreadMethod="pad" x1=".05" x2=".05" xlink:href="#C" y1="-28.05" y2="28.15"/><linearGradient id="a5" gradientUnits="userSpaceOnUse" spreadMethod="pad" x1="-44.95" x2="-44.95" xlink:href="#C" y1="-28.1" y2="28.1"/><linearGradient id="a6" gradientUnits="userSpaceOnUse" spreadMethod="pad" x1="-11.05" x2="-11.05" y1="-5.6" y2="16.5"><stop offset="0" stop-color="#e7ac3a"/><stop offset="1" stop-color="#f8ad28"/></linearGradient><linearGradient id="a7" gradientUnits="userSpaceOnUse" spreadMethod="pad" x1="-88.9" x2="-88.9" xlink:href="#C" y1="-28.1" y2="28.1"/><linearGradient id="a8"><stop offset="0" stop-color="#d0dce9"/><stop offset="1" stop-color="#b5c6d9"/></linearGradient><linearGradient id="a9" gradientUnits="userSpaceOnUse" spreadMethod="pad" x1=".4" x2=".4" xlink:href="#a8" y1="61.5" y2="25.5"/><linearGradient id="ba" gradientUnits="userSpaceOnUse" spreadMethod="pad" x1="0" x2="0" xlink:href="#a8" y1="31.275" y2="-64.075"/><linearGradient id="bb"><stop offset="0" stop-color="#c6d5e6"/><stop offset="1" stop-color="#a2b7d0"/></linearGradient><linearGradient id="bc" gradientUnits="userSpaceOnUse" spreadMethod="pad" x1="0" x2="0" xlink:href="#bb" y1="-46" y2="50"/><linearGradient id="bd"><stop offset="0" stop-color="#fede6f"/><stop offset="1" stop-color="#ffb43c"/></linearGradient><linearGradient id="be" gradientUnits="userSpaceOnUse" spreadMethod="pad" x1="0" x2="0" xlink:href="#bd" y1="-30" y2="30"/><linearGradient id="bf" gradientUnits="userSpaceOnUse" spreadMethod="pad" x1="10" x2="-10" xlink:href="#bd" y1="10" y2="-10"/><linearGradient id="bg" gradientUnits="userSpaceOnUse" spreadMethod="pad" x1="0" x2="0" xlink:href="#bb" y1="50" y2="10"/><linearGradient id="bh" gradientUnits="userSpaceOnUse" spreadMethod="pad" x1="0" x2="0" xlink:href="#k" y1="-43" y2="37"/><linearGradient id="bi" gradientUnits="userSpaceOnUse" spreadMethod="pad" x1="-.25" x2="-.25" xlink:href="#m" y1="-20.25" y2="23.25"/><linearGradient id="bj" gradientUnits="userSpaceOnUse" spreadMethod="pad" x1="-21.5" x2="-21.5" xlink:href="#k" y1="-43" y2="37"/><linearGradient id="bk" gradientUnits="userSpaceOnUse" spreadMethod="pad" x1="-21.5" x2="-21.5" xlink:href="#bb" y1="50" y2="10"/><linearGradient id="bl" gradientUnits="userSpaceOnUse" spreadMethod="pad" x1="-21.85" x2="-21.85" xlink:href="#m" y1="-20.25" y2="23.25"/><linearGradient id="bm" gradientUnits="userSpaceOnUse" spreadMethod="pad" x1=".25" x2=".25" xlink:href="#m" y1="-20.25" y2="23.25"/><linearGradient id="bn" gradientUnits="userSpaceOnUse" spreadMethod="pad" x1="0" x2="0" xlink:href="#bb" y1="30" y2="-10"/><linearGradient id="bo" gradientUnits="userSpaceOnUse" spreadMethod="pad" x1="0" x2="0" xlink:href="#C" y1="-63" y2="17"/><linearGradient id="bp" gradientUnits="userSpaceOnUse" spreadMethod="pad" x1="-21.5" x2="-21.5" xlink:href="#bb" y1="30" y2="-10"/><linearGradient id="bq" gradientUnits="userSpaceOnUse" spreadMethod="pad" x1="-21.85" x2="-21.85" xlink:href="#E" y1="-40.25" y2="3.25"/><linearGradient id="br" gradientUnits="userSpaceOnUse" spreadMethod="pad" x1="-21.5" x2="-21.5" xlink:href="#C" y1="-63" y2="17"/><linearGradient id="bs" gradientUnits="userSpaceOnUse" spreadMethod="pad" x1=".25" x2=".25" xlink:href="#E" y1="-40.25" y2="3.25"/><linearGradient id="bt" gradientUnits="userSpaceOnUse" spreadMethod="pad" x1="-96.35" x2="-96.35" xlink:href="#c" y1="-14.7" y2="28.6"/><linearGradient id="bu" gradientUnits="userSpaceOnUse" spreadMethod="pad" x1="90" x2="90" xlink:href="#a" y1="-40" y2="40"/><linearGradient id="bv" gradientUnits="userSpaceOnUse" spreadMethod="pad" x1="96.35" x2="96.35" xlink:href="#c" y1="-14.7" y2="28.6"/><g transform="translate(70 80)"><path d="m40-26q-.25-10-10.55-10h-58.95q-10.25 0-10.5 10v55.95q.25 10.05 10.5 10.05h58.95q10.3 0 10.55-10.05z" fill="url(#b)"/><path d="m40-29.5q0-10.5-10.55-10.5h-58.95q-10.5 0-10.5 10.5v3.5q.25-10 10.5-10h58.95q10.3 0 10.55 10z" fill="url(#d)"/></g><g transform="translate(160 80)"><path d="m28.3-24.3q-11.7-11.7-28.3-11.7-16.6 0-28.3 11.7-11 11-11.65 26.3.65 15.3 11.65 26.3 11.7 11.7 28.3 11.7 16.6 0 28.3-11.7 11-11 11.65-26.3-.65-15.3-11.65-26.3z" fill="url(#e)"/><path d="m28.3-28.3q-11.7-11.7-28.3-11.7-16.6 0-28.3 11.7-11.7 11.7-11.7 28.3 0 1 .05 2 .65-15.3 11.65-26.3 11.7-11.7 28.3-11.7 16.6 0 28.3 11.7 11 11 11.65 26.3.05-1 .05-2 0-16.6-11.7-28.3z" fill="url(#f)"/></g><g transform="translate(250 80)"><path d="m19.75-34.25q-7.35-1.75-19.75-1.75-12.45 0-19.75 1.75-7.85 1.9-12.25 6.25-4.35 4.4-6.25 12.25-1.55 6.6-1.7 17.25 0 .5 0 1 .15 10.65 1.7 17.25 1.9 7.9 6.25 12.25 4.4 4.4 12.25 6.25 7.3 1.75 19.75 1.75 12.4 0 19.75-1.75 7.9-1.85 12.25-6.25 4.4-4.35 6.25-12.25 1.55-6.5 1.75-17 0-.15 0-.25v-1.25q-.2-10.5-1.75-17-1.85-7.85-6.25-12.25-4.35-4.35-12.25-6.25z" fill="url(#g)"/><path d="m0-36q12.4 0 19.75 1.75 7.9 1.9 12.25 6.25 4.4 4.4 6.25 12.25 1.55 6.5 1.75 17 0-.6 0-1.25 0-12.4-1.75-19.75-1.85-7.85-6.25-12.25-4.35-4.35-12.25-6.25-7.35-1.75-19.75-1.75-12.45 0-19.75 1.75-7.85 1.9-12.25 6.25-4.35 4.4-6.25 12.25-1.75 7.35-1.75 19.75 0 .75.05 1.5.15-10.65 1.7-17.25 1.9-7.85 6.25-12.25 4.4-4.35 12.25-6.25 7.3-1.75 19.75-1.75z" fill="url(#h)"/></g><g transform="translate(340 80)"><path d="m23-19q-17-17-23-17-6 0-23 17-14.5 14.6-16.65 21.05.1.25.2.55 2.5 6.55 16.45 20.4 16.95 17 23 17 6 0 23-17 13.95-13.85 16.5-20.4.1-.25.15-.5-2.05-6.45-16.65-21.1z" fill="url(#i)"/><path d="m23-23q-17-17-23-17-6 0-23 17-17 17.1-17 23 0 .9.35 2.05 2.15-6.45 16.65-21.05 17-17 23-17 6 0 23 17 14.6 14.65 16.65 21.1.35-1.2.35-2.1 0-5.9-17-23z" fill="url(#j)"/></g><g transform="translate(450 80)"><path d="m40-26q-.25-10-10.55-10h-58.95q-10.25 0-10.5 10v55.95q.25 10.05 10.5 10.05h58.95q10.3 0 10.55-10.05z" fill="url(#l)"/><path d="m40-29.5q0-10.5-10.55-10.5h-58.95q-10.5 0-10.5 10.5v3.5q.25-10 10.5-10h58.95q10.3 0 10.55 10z" fill="url(#n)"/></g><g transform="translate(540 80)"><path d="m28.3-24.3q-11.7-11.7-28.3-11.7-16.6 0-28.3 11.7-11 11-11.65 26.3.65 15.3 11.65 26.3 11.7 11.7 28.3 11.7 16.6 0 28.3-11.7 11-11 11.65-26.3-.65-15.3-11.65-26.3z" fill="url(#o)"/><path d="m28.3-28.3q-11.7-11.7-28.3-11.7-16.6 0-28.3 11.7-11.7 11.7-11.7 28.3 0 1 .05 2 .65-15.3 11.65-26.3 11.7-11.7 28.3-11.7 16.6 0 28.3 11.7 11 11 11.65 26.3.05-1 .05-2 0-16.6-11.7-28.3z" fill="url(#p)"/></g><g transform="translate(630 80)"><path d="m19.75-34.25q-7.35-1.75-19.75-1.75-12.45 0-19.75 1.75-7.85 1.9-12.25 6.25-4.35 4.4-6.25 12.25-1.55 6.6-1.7 17.25 0 .5 0 1 .15 10.65 1.7 17.25 1.9 7.9 6.25 12.25 4.4 4.4 12.25 6.25 7.3 1.75 19.75 1.75 12.4 0 19.75-1.75 7.9-1.85 12.25-6.25 4.4-4.35 6.25-12.25 1.55-6.5 1.75-17 0-.15 0-.25v-1.25q-.2-10.5-1.75-17-1.85-7.85-6.25-12.25-4.35-4.35-12.25-6.25z" fill="url(#l)"/><path d="m19.75-38.25q-7.35-1.75-19.75-1.75-12.45 0-19.75 1.75-7.85 1.9-12.25 6.25-4.35 4.4-6.25 12.25-1.75 7.35-1.75 19.75 0 .75.05 1.5.15-10.65 1.7-17.25 1.9-7.85 6.25-12.25 4.4-4.35 12.25-6.25 7.3-1.75 19.75-1.75 12.4 0 19.75 1.75 7.9 1.9 12.25 6.25 4.4 4.4 6.25 12.25 1.55 6.5 1.75 17 0-.6 0-1.25 0-12.4-1.75-19.75-1.85-7.85-6.25-12.25-4.35-4.35-12.25-6.25z" fill="url(#q)"/></g><g transform="translate(720 80)"><path d="m23-19q-17-17-23-17-6 0-23 17-14.5 14.6-16.65 21.05.1.25.2.55 2.5 6.55 16.45 20.4 16.95 17 23 17 6 0 23-17 13.95-13.85 16.5-20.4.1-.25.15-.5-2.05-6.45-16.65-21.1z" fill="url(#l)"/><path d="m23-23q-17-17-23-17-6 0-23 17-17 17.1-17 23 0 .9.35 2.05 2.15-6.45 16.65-21.05 17-17 23-17 6 0 23 17 14.6 14.65 16.65 21.1.35-1.2.35-2.1 0-5.9-17-23z" fill="url(#r)"/></g><g transform="translate(830 80)"><path d="m40-26q-.25-10-10.55-10h-58.95q-10.25 0-10.5 10v55.95q.25 10.05 10.5 10.05h58.95q10.3 0 10.55-10.05z" fill="url(#t)"/><path d="m40-29.5q0-10.5-10.55-10.5h-58.95q-10.5 0-10.5 10.5v3.5q.25-10 10.5-10h58.95q10.3 0 10.55 10z" fill="url(#v)"/></g><g transform="translate(920 80)"><path d="m28.3-24.3q-11.7-11.7-28.3-11.7-16.6 0-28.3 11.7-11 11-11.65 26.3.65 15.3 11.65 26.3 11.7 11.7 28.3 11.7 16.6 0 28.3-11.7 11-11 11.65-26.3-.65-15.3-11.65-26.3z" fill="url(#w)"/><path d="m28.3-28.3q-11.7-11.7-28.3-11.7-16.6 0-28.3 11.7-11.7 11.7-11.7 28.3 0 1 .05 2 .65-15.3 11.65-26.3 11.7-11.7 28.3-11.7 16.6 0 28.3 11.7 11 11 11.65 26.3.05-1 .05-2 0-16.6-11.7-28.3z" fill="url(#x)"/></g><g transform="translate(1010 80)"><path d="m19.75-34.25q-7.35-1.75-19.75-1.75-12.45 0-19.75 1.75-7.85 1.9-12.25 6.25-4.35 4.4-6.25 12.25-1.55 6.6-1.7 17.25 0 .5 0 1 .15 10.65 1.7 17.25 1.9 7.9 6.25 12.25 4.4 4.4 12.25 6.25 7.3 1.75 19.75 1.75 12.4 0 19.75-1.75 7.9-1.85 12.25-6.25 4.4-4.35 6.25-12.25 1.55-6.5 1.75-17 0-.15 0-.25v-1.25q-.2-10.5-1.75-17-1.85-7.85-6.25-12.25-4.35-4.35-12.25-6.25z" fill="url(#y)"/><path d="m19.75-38.25q-7.35-1.75-19.75-1.75-12.45 0-19.75 1.75-7.85 1.9-12.25 6.25-4.35 4.4-6.25 12.25-1.75 7.35-1.75 19.75 0 .75.05 1.5.15-10.65 1.7-17.25 1.9-7.85 6.25-12.25 4.4-4.35 12.25-6.25 7.3-1.75 19.75-1.75 12.4 0 19.75 1.75 7.9 1.9 12.25 6.25 4.4 4.4 6.25 12.25 1.55 6.5 1.75 17 0-.6 0-1.25 0-12.4-1.75-19.75-1.85-7.85-6.25-12.25-4.35-4.35-12.25-6.25z" fill="url(#z)"/></g><g transform="translate(1100 80)"><path d="m23-19q-17-17-23-17-6 0-23 17-14.5 14.6-16.65 21.05.1.25.2.55 2.5 6.55 16.45 20.4 16.95 17 23 17 6 0 23-17 13.95-13.85 16.5-20.4.1-.25.15-.5-2.05-6.45-16.65-21.1z" fill="url(#A)"/><path d="m23-23q-17-17-23-17-6 0-23 17-17 17.1-17 23 0 .9.35 2.05 2.15-6.45 16.65-21.05 17-17 23-17 6 0 23 17 14.6 14.65 16.65 21.1.35-1.2.35-2.1 0-5.9-17-23z" fill="url(#B)"/></g><g transform="translate(830 250)"><path d="m40-26q-.25-10-10.55-10h-58.95q-10.25 0-10.5 10v55.95q.25 10.05 10.5 10.05h58.95q10.3 0 10.55-10.05z" fill="url(#D)"/><path d="m40-29.5q0-10.5-10.55-10.5h-58.95q-10.5 0-10.5 10.5v3.5q.25-10 10.5-10h58.95q10.3 0 10.55 10z" fill="url(#F)"/></g><g transform="translate(920 250)"><path d="m28.3-24.3q-11.7-11.7-28.3-11.7-16.6 0-28.3 11.7-11 11-11.65 26.3.65 15.3 11.65 26.3 11.7 11.7 28.3 11.7 16.6 0 28.3-11.7 11-11 11.65-26.3-.65-15.3-11.65-26.3z" fill="url(#G)"/><path d="m28.3-28.3q-11.7-11.7-28.3-11.7-16.6 0-28.3 11.7-11.7 11.7-11.7 28.3 0 1 .05 2 .65-15.3 11.65-26.3 11.7-11.7 28.3-11.7 16.6 0 28.3 11.7 11 11 11.65 26.3.05-1 .05-2 0-16.6-11.7-28.3z" fill="url(#H)"/></g><g transform="translate(1010 250)"><path d="m19.75-34.25q-7.35-1.75-19.75-1.75-12.45 0-19.75 1.75-7.85 1.9-12.25 6.25-4.35 4.4-6.25 12.25-1.55 6.6-1.7 17.25 0 .5 0 1 .15 10.65 1.7 17.25 1.9 7.9 6.25 12.25 4.4 4.4 12.25 6.25 7.3 1.75 19.75 1.75 12.4 0 19.75-1.75 7.9-1.85 12.25-6.25 4.4-4.35 6.25-12.25 1.55-6.5 1.75-17 0-.15 0-.25v-1.25q-.2-10.5-1.75-17-1.85-7.85-6.25-12.25-4.35-4.35-12.25-6.25z" fill="url(#I)"/><path d="m0-36q12.4 0 19.75 1.75 7.9 1.9 12.25 6.25 4.4 4.4 6.25 12.25 1.55 6.5 1.75 17 0-.6 0-1.25 0-12.4-1.75-19.75-1.85-7.85-6.25-12.25-4.35-4.35-12.25-6.25-7.35-1.75-19.75-1.75-12.45 0-19.75 1.75-7.85 1.9-12.25 6.25-4.35 4.4-6.25 12.25-1.75 7.35-1.75 19.75 0 .75.05 1.5.15-10.65 1.7-17.25 1.9-7.85 6.25-12.25 4.4-4.35 12.25-6.25 7.3-1.75 19.75-1.75z" fill="url(#J)"/></g><g transform="translate(1100 250)"><path d="m23-19q-17-17-23-17-6 0-23 17-14.5 14.6-16.65 21.05.1.25.2.55 2.5 6.55 16.45 20.4 16.95 17 23 17 6 0 23-17 13.95-13.85 16.5-20.4.1-.25.15-.5-2.05-6.45-16.65-21.1z" fill="url(#K)"/><path d="m23-23q-17-17-23-17-6 0-23 17-17 17.1-17 23 0 .9.35 2.05 2.15-6.45 16.65-21.05 17-17 23-17 6 0 23 17 14.6 14.65 16.65 21.1.35-1.2.35-2.1 0-5.9-17-23z" fill="url(#L)"/></g><g transform="translate(720 250)"><path d="m23-19q-17-17-23-17-6 0-23 17-14.5 14.6-16.65 21.05.1.25.2.55 2.5 6.55 16.45 20.4 16.95 17 23 17 6 0 23-17 13.95-13.85 16.5-20.4.1-.25.15-.5-2.05-6.45-16.65-21.1z" fill="url(#N)"/><path d="m23-23q-17-17-23-17-6 0-23 17-17 17.1-17 23 0 .9.35 2.05 2.15-6.45 16.65-21.05 17-17 23-17 6 0 23 17 14.6 14.65 16.65 21.1.35-1.2.35-2.1 0-5.9-17-23z" fill="url(#P)"/></g><g transform="translate(630 250)"><path d="m19.75-34.25q-7.35-1.75-19.75-1.75-12.45 0-19.75 1.75-7.85 1.9-12.25 6.25-4.35 4.4-6.25 12.25-1.55 6.6-1.7 17.25 0 .5 0 1 .15 10.65 1.7 17.25 1.9 7.9 6.25 12.25 4.4 4.4 12.25 6.25 7.3 1.75 19.75 1.75 12.4 0 19.75-1.75 7.9-1.85 12.25-6.25 4.4-4.35 6.25-12.25 1.55-6.5 1.75-17 0-.15 0-.25v-1.25q-.2-10.5-1.75-17-1.85-7.85-6.25-12.25-4.35-4.35-12.25-6.25z" fill="url(#Q)"/><path d="m19.75-38.25q-7.35-1.75-19.75-1.75-12.45 0-19.75 1.75-7.85 1.9-12.25 6.25-4.35 4.4-6.25 12.25-1.75 7.35-1.75 19.75 0 .75.05 1.5.15-10.65 1.7-17.25 1.9-7.85 6.25-12.25 4.4-4.35 12.25-6.25 7.3-1.75 19.75-1.75 12.4 0 19.75 1.75 7.9 1.9 12.25 6.25 4.4 4.4 6.25 12.25 1.55 6.5 1.75 17 0-.6 0-1.25 0-12.4-1.75-19.75-1.85-7.85-6.25-12.25-4.35-4.35-12.25-6.25z" fill="url(#R)"/></g><g transform="translate(540 250)"><path d="m28.3-24.3q-11.7-11.7-28.3-11.7-16.6 0-28.3 11.7-11 11-11.65 26.3.65 15.3 11.65 26.3 11.7 11.7 28.3 11.7 16.6 0 28.3-11.7 11-11 11.65-26.3-.65-15.3-11.65-26.3z" fill="url(#S)"/><path d="m28.3-28.3q-11.7-11.7-28.3-11.7-16.6 0-28.3 11.7-11.7 11.7-11.7 28.3 0 1 .05 2 .65-15.3 11.65-26.3 11.7-11.7 28.3-11.7 16.6 0 28.3 11.7 11 11 11.65 26.3.05-1 .05-2 0-16.6-11.7-28.3z" fill="url(#T)"/></g><g transform="translate(450 250)"><path d="m40-26q-.25-10-10.55-10h-58.95q-10.25 0-10.5 10v55.95q.25 10.05 10.5 10.05h58.95q10.3 0 10.55-10.05z" fill="url(#U)"/><path d="m29.45-36q10.3 0 10.55 10v-3.5q0-10.5-10.55-10.5h-58.95q-10.5 0-10.5 10.5v3.5q.25-10 10.5-10z" fill="url(#V)"/></g><g transform="translate(70 250)"><path d="m40-26q-.25-10-10.55-10h-58.95q-10.25 0-10.5 10v55.95q.25 10.05 10.5 10.05h58.95q10.3 0 10.55-10.05z" fill="url(#X)"/><path d="m29.45-36q10.3 0 10.55 10v-3.5q0-10.5-10.55-10.5h-58.95q-10.5 0-10.5 10.5v3.5q.25-10 10.5-10z" fill="url(#Z)"/></g><g transform="translate(160 250)"><path d="m28.3-24.3q-11.7-11.7-28.3-11.7-16.6 0-28.3 11.7-11 11-11.65 26.3.65 15.3 11.65 26.3 11.7 11.7 28.3 11.7 16.6 0 28.3-11.7 11-11 11.65-26.3-.65-15.3-11.65-26.3z" fill="url(#aa)"/><path d="m28.3-28.3q-11.7-11.7-28.3-11.7-16.6 0-28.3 11.7-11.7 11.7-11.7 28.3 0 1 .05 2 .65-15.3 11.65-26.3 11.7-11.7 28.3-11.7 16.6 0 28.3 11.7 11 11 11.65 26.3.05-1 .05-2 0-16.6-11.7-28.3z" fill="url(#ab)"/></g><g transform="translate(250 250)"><path d="m19.75-34.25q-7.35-1.75-19.75-1.75-12.45 0-19.75 1.75-7.85 1.9-12.25 6.25-4.35 4.4-6.25 12.25-1.55 6.6-1.7 17.25 0 .5 0 1 .15 10.65 1.7 17.25 1.9 7.9 6.25 12.25 4.4 4.4 12.25 6.25 7.3 1.75 19.75 1.75 12.4 0 19.75-1.75 7.9-1.85 12.25-6.25 4.4-4.35 6.25-12.25 1.55-6.5 1.75-17 0-.15 0-.25v-1.25q-.2-10.5-1.75-17-1.85-7.85-6.25-12.25-4.35-4.35-12.25-6.25z" fill="url(#ac)"/><path d="m0-36q12.4 0 19.75 1.75 7.9 1.9 12.25 6.25 4.4 4.4 6.25 12.25 1.55 6.5 1.75 17 0-.6 0-1.25 0-12.4-1.75-19.75-1.85-7.85-6.25-12.25-4.35-4.35-12.25-6.25-7.35-1.75-19.75-1.75-12.45 0-19.75 1.75-7.85 1.9-12.25 6.25-4.35 4.4-6.25 12.25-1.75 7.35-1.75 19.75 0 .75.05 1.5.15-10.65 1.7-17.25 1.9-7.85 6.25-12.25 4.4-4.35 12.25-6.25 7.3-1.75 19.75-1.75z" fill="url(#ad)"/></g><g transform="translate(340 250)"><path d="m23-19q-17-17-23-17-6 0-23 17-14.5 14.6-16.65 21.05.1.25.2.55 2.5 6.55 16.45 20.4 16.95 17 23 17 6 0 23-17 13.95-13.85 16.5-20.4.1-.25.15-.5-2.05-6.45-16.65-21.1z" fill="url(#ae)"/><path d="m23-23q-17-17-23-17-6 0-23 17-17 17.1-17 23 0 .9.35 2.05 2.15-6.45 16.65-21.05 17-17 23-17 6 0 23 17 14.6 14.65 16.65 21.1.35-1.2.35-2.1 0-5.9-17-23z" fill="url(#af)"/></g><g transform="translate(51 159.95)"><path d="m-13-9.9q.25 2.8-.1 5.2-.5 3.45-2.45 6.1-.15.2-.25.3l13.4-10.85q0-.85-.1-1.65-.2-2.1-1.95-3.45-1.6-1.25-3.8-1.1-2.15.2-3.55 1.8-1.4 1.7-1.2 3.65z" fill="url(#ag)"/><path d="m11.9-17.95q-.3 0-.55 0-1.5.1-2.8 1-5.5 3.95-10.95 7.8l-13.4 10.85q-2 3.75-.6 8.3.4 1 .95 1.95 2.55 4.15 7.7 5.5 3.9 1.05 7.55.1.6-.15 1.2-.35l6.1-1.95q.5-.15.95-.3.15-.05.3-.1 2.1-1 3-3 1.05-2.25.05-4.4-.15-.35-.35-.7.35-.7.55-1.5.6-2.25-.6-4.3-.9-1.4-2.35-2.15l-.05-.05-2.55-1.3q4.35-3.15 8.8-6.3 1.75-1.3 2.1-3.4.25-2.05-1.1-3.75-1.3-1.65-3.45-1.9-.25-.05-.5-.05z" fill="url(#ah)"/></g><path d="m5.3-18q-.8-.5-1.75-.75-2.35-.65-4.5.5-.2.1-.4.25-1.75 1.15-2.35 3.15-.9 3.15-2.75 5.95-1.2 1.9-2.85 3.6-.2.2-.4.45-4.7 4.15-5.45 6.9-.85 2.1-.85 4.5 0 5.15 3.8 8.8 3.8 3.65 9.15 3.65 3.05 0 4.35 0 2.95 0 5.2 0 2.9 0 4.95-1.95 1.5-1.45 1.1-4.55 2.85-.2 3.45-3.65 0-.2 0-.4 0-2.2-1.3-3.9 1.2-1.7 1.2-3.85 0-2.8-2.05-4.75-2.05-2-4.95-2-2.45 0-3.5.3 1.15-2.3 2.2-6.1.65-2.2-.5-4.2-.75-1.25-1.8-1.95z" fill="url(#ai)" transform="translate(94 160)"/><g transform="translate(134 160)"><path d="m-13.1 11.05q1.8 5.4 7.2 7.6l-3.7-19.45q-3 1.05-4 4.25-.9 3.3.35 7.05.1.25.15.55z" fill="url(#aj)"/><path d="m5.55-18.6q-1.2-1.3-2.95-1.4-1.75-.05-3.05 1.1-.45.4-.75.9-.6.9-.65 2.05-.15 3.65-.35 6.75l-.35.05q-.4-3.3-.95-7.15-.15-.95-.6-1.7-.45-.6-1.05-1.1-1.4-1-3.2-.75-1.7.25-2.75 1.65-.1.1-.15.2-.9 1.25-.65 2.85 1.2 8.6 2.3 14.35l3.7 19.45q1.85.75 4.05 1.2 4.95.75 9.4-2.2 4.7-3.2 5.65-9 0-.1 0-.15 0-.05.05-.15.3-2.35.5-3.9.25-2.75.25-3.2 0-.3 0-.55-.2-1.45-1.3-2.55-1.3-1.3-3.1-1.3-.3-.45-.7-.85-1.2-1.25-2.9-1.3.35-4.5.65-10.3.05-1.35-.6-2.4-.25-.3-.5-.6z" fill="url(#ak)"/></g><path d="m8.8-4.3q-2.1-.8-5.05-1.2-2.45-.3-4.15.1-.55-4.9-1.15-9.9-.2-1.6-1.4-2.65-.1-.05-.15-.1-1.35-1.05-3.05-.85-1.25.15-2.15.95-.3.25-.55.6-1.05 1.35-.85 3.05.85 6.7 1.5 13.25.15 1.05.25 2.1-1.85-1.35-3.9-2.5-1.5-.85-3.15-.4-1.6.45-2.45 1.95-.85 1.45-.4 3.1.45 1.65 1.95 2.5 2.95 1.7 5.25 3.7 1.8 1.6 3.15 3.4 2.6 4.7 7.3 5.95 1.15.25 2.4.25 4.65 0 8.25-3.5.6-.65 1.15-1.3 2.5-3.05 3.95-10.45.45-2.35.95-4.65.9-4.3 1.45-8.55.25-1.7-.8-3.05-1-1.35-2.7-1.6-1.65-.25-3 .8-1.4 1.05-1.6 2.75-.45 3.1-1.05 6.25z" fill="url(#al)" transform="translate(176 159.95)"/><path d="m6.15-16q-.35-1.25-1.25-2-.35-.3-.75-.5-1.5-.85-3.1-.3-.85.25-1.4.8-.6.5-.95 1.25-.8 1.55-.3 3.2 1.35 4.6 1.65 9.4-1.9-4.9-5.3-9.55-1.05-1.35-2.7-1.6-1.7-.25-3 .85-1.35 1.05-1.6 2.75-.2 1.75.8 3.15 3.15 4.2 4.65 8.7.8 2.3.8 5.55-1.7-1.55-3.65-3.7-1.2-1.3-2.85-1.35-1.7-.05-2.9 1.15-1.25 1.2-1.3 2.95-.05 1.7 1.1 3 .95 1.05 1.85 1.95 2.4 2.5 4.55 4.1.05.05.1.05l1.25.8q3.8 2.8 8.5 4.05 7.1 1.35 11-3.65.15-.2.3-.4.35-.55.7-1.05 2.45-4.55 3.5-13.1l.7-4.4q.3-1.7.4-3.45.05-.45.05-.9.05-1.75-1.1-3-1.2-1.25-2.85-1.3-1.7-.05-2.9 1.15-1.25 1.2-1.3 2.95-.05 2.35-.65 4.65-.3-6.25-2.05-12.2z" fill="url(#am)" transform="translate(221 160)"/><g transform="translate(264.95 160)"><path d="m-12.4-5.65q-.55.25-1.05.55-4.7 2.65-3.15 9.45 1.5 6.8 5.65 9.7 2.45 1.75 5.75 2.45z" fill="url(#an)"/><path d="m7.6-12.9q-1-3.9-6.45-4.1-4.75-.3-6.15 3.25-1.85-2.6-6.1-.2-4.05 2.25-1.3 8.3l7.2 22.15q2.25.5 4.9.5 6.5 0 11.05-4.15.55-.55 1.05-1.1 7.1-8.85 4.6-19.25-.95-4.4-5.6-5.2-1.75-.35-3.2-.2z" fill="url(#ao)"/></g><g transform="translate(644.95 160)"><path d="m-12.4-5.65q-.55.25-1.05.55-4.7 2.65-3.15 9.45 1.5 6.8 5.65 9.7 2.45 1.75 5.75 2.45z" fill="url(#ap)"/><path d="m16.4-7.5q-.95-4.4-5.6-5.2-1.75-.35-3.2-.2-1-3.9-6.45-4.1-4.75-.3-6.15 3.25-1.85-2.6-6.1-.2-4.05 2.25-1.3 8.3l7.2 22.15q2.25.5 4.9.5 6.5 0 11.05-4.15.55-.55 1.05-1.1 7.1-8.85 4.6-19.25z" fill="url(#aq)"/></g><path d="m4.15-18.5q-1.5-.85-3.1-.3-.85.25-1.4.8-.6.5-.95 1.25-.8 1.55-.3 3.2 1.35 4.6 1.65 9.4-1.9-4.9-5.3-9.55-1.05-1.35-2.7-1.6-1.7-.25-3 .85-1.35 1.05-1.6 2.75-.2 1.75.8 3.15 3.15 4.2 4.65 8.7.8 2.3.8 5.55-1.7-1.55-3.65-3.7-1.2-1.3-2.85-1.35-1.7-.05-2.9 1.15-1.25 1.2-1.3 2.95-.05 1.7 1.1 3 .95 1.05 1.85 1.95 2.4 2.5 4.55 4.1.05.05.1.05l1.25.8q3.8 2.8 8.5 4.05 7.1 1.35 11-3.65.15-.2.3-.4.35-.55.7-1.05 2.45-4.55 3.5-13.1l.7-4.4q.3-1.7.4-3.45.05-.45.05-.9.05-1.75-1.1-3-1.2-1.25-2.85-1.3-1.7-.05-2.9 1.15-1.25 1.2-1.3 2.95-.05 2.35-.65 4.65-.3-6.25-2.05-12.2-.35-1.25-1.25-2-.35-.3-.75-.5z" fill="url(#ar)" transform="translate(601 160)"/><path d="m-1.55-15.3q-.2-1.6-1.4-2.65-.1-.05-.15-.1-1.35-1.05-3.05-.85-1.25.15-2.15.95-.3.25-.55.6-1.05 1.35-.85 3.05.85 6.7 1.5 13.25.15 1.05.25 2.1-1.85-1.35-3.9-2.5-1.5-.85-3.15-.4-1.6.45-2.45 1.95-.85 1.45-.4 3.1.45 1.65 1.95 2.5 2.95 1.7 5.25 3.7 1.8 1.6 3.15 3.4 2.6 4.7 7.3 5.95 1.15.25 2.4.25 4.65 0 8.25-3.5.6-.65 1.15-1.3 2.5-3.05 3.95-10.45.45-2.35.95-4.65.9-4.3 1.45-8.55.25-1.7-.8-3.05-1-1.35-2.7-1.6-1.65-.25-3 .8-1.4 1.05-1.6 2.75-.45 3.1-1.05 6.25-2.1-.8-5.05-1.2-2.45-.3-4.15.1-.55-4.9-1.15-9.9z" fill="url(#as)" transform="translate(556 159.95)"/><g transform="translate(514 160)"><path d="m-13.6 3.45q-.9 3.3.35 7.05.1.25.15.55 1.8 5.4 7.2 7.6l-3.7-19.45q-3 1.05-4 4.25z" fill="url(#at)"/><path d="m12.7-1.85q-1.3-1.3-3.1-1.3-.3-.45-.7-.85-1.2-1.25-2.9-1.3.35-4.5.65-10.3.05-1.35-.6-2.4-.25-.3-.5-.6-1.2-1.3-2.95-1.4-1.75-.05-3.05 1.1-.45.4-.75.9-.6.9-.65 2.05-.15 3.65-.35 6.75l-.35.05q-.4-3.3-.95-7.15-.15-.95-.6-1.7-.45-.6-1.05-1.1-1.4-1-3.2-.75-1.7.25-2.75 1.65-.1.1-.15.2-.9 1.25-.65 2.85 1.2 8.6 2.3 14.35l3.7 19.45q1.85.75 4.05 1.2 4.95.75 9.4-2.2 4.7-3.2 5.65-9 0-.1 0-.15 0-.05.05-.15.3-2.35.5-3.9.25-2.75.25-3.2 0-.3 0-.55-.2-1.45-1.3-2.55z" fill="url(#au)"/></g><path d="m-.95-18.25q-.2.1-.4.25-1.75 1.15-2.35 3.15-.9 3.15-2.75 5.95-1.2 1.9-2.85 3.6-.2.2-.4.45-4.7 4.15-5.45 6.9-.85 2.1-.85 4.5 0 5.15 3.8 8.8 3.8 3.65 9.15 3.65 3.05 0 4.35 0 2.95 0 5.2 0 2.9 0 4.95-1.95 1.5-1.45 1.1-4.55 2.85-.2 3.45-3.65 0-.2 0-.4 0-2.2-1.3-3.9 1.2-1.7 1.2-3.85 0-2.8-2.05-4.75-2.05-2-4.95-2-2.45 0-3.5.3 1.15-2.3 2.2-6.1.65-2.2-.5-4.2-.75-1.25-1.8-1.95-.8-.5-1.75-.75-2.35-.65-4.5.5z" fill="url(#av)" transform="translate(474 160)"/><g transform="translate(431 159.95)"><path d="m-2.4-9.15q0-.85-.1-1.65-.2-2.1-1.95-3.45-1.6-1.25-3.8-1.1-2.15.2-3.55 1.8-1.4 1.7-1.2 3.65.25 2.8-.1 5.2-.5 3.45-2.45 6.1-.15.2-.25.3z" fill="url(#aw)"/><path d="m15.85-16q-1.3-1.65-3.45-1.9-.25-.05-.5-.05-.3 0-.55 0-1.5.1-2.8 1-5.5 3.95-10.95 7.8l-13.4 10.85q-2 3.75-.6 8.3.4 1 .95 1.95 2.55 4.15 7.7 5.5 3.9 1.05 7.55.1.6-.15 1.2-.35l6.1-1.95q.5-.15.95-.3.15-.05.3-.1 2.1-1 3-3 1.05-2.25.05-4.4-.15-.35-.35-.7.35-.7.55-1.5.6-2.25-.6-4.3-.9-1.4-2.35-2.15l-.05-.05-2.55-1.3q4.35-3.15 8.8-6.3 1.75-1.3 2.1-3.4.25-2.05-1.1-3.75z" fill="url(#ax)"/></g><g transform="translate(811 159.95)"><path d="m-2.4-9.15q0-.85-.1-1.65-.2-2.1-1.95-3.45-1.6-1.25-3.8-1.1-2.15.2-3.55 1.8-1.4 1.7-1.2 3.65.25 2.8-.1 5.2-.5 3.45-2.45 6.1-.15.2-.25.3z" fill="url(#ay)"/><path d="m15.85-16q-1.3-1.65-3.45-1.9-.25-.05-.5-.05-.3 0-.55 0-1.5.1-2.8 1-5.5 3.95-10.95 7.8l-13.4 10.85q-2 3.75-.6 8.3.4 1 .95 1.95 2.55 4.15 7.7 5.5 3.9 1.05 7.55.1.6-.15 1.2-.35l6.1-1.95q.5-.15.95-.3.15-.05.3-.1 2.1-1 3-3 1.05-2.25.05-4.4-.15-.35-.35-.7.35-.7.55-1.5.6-2.25-.6-4.3-.9-1.4-2.35-2.15l-.05-.05-2.55-1.3q4.35-3.15 8.8-6.3 1.75-1.3 2.1-3.4.25-2.05-1.1-3.75z" fill="url(#az)"/></g><path d="m-.95-18.25q-.2.1-.4.25-1.75 1.15-2.35 3.15-.9 3.15-2.75 5.95-1.2 1.9-2.85 3.6-.2.2-.4.45-4.7 4.15-5.45 6.9-.85 2.1-.85 4.5 0 5.15 3.8 8.8 3.8 3.65 9.15 3.65 3.05 0 4.35 0 2.95 0 5.2 0 2.9 0 4.95-1.95 1.5-1.45 1.1-4.55 2.85-.2 3.45-3.65 0-.2 0-.4 0-2.2-1.3-3.9 1.2-1.7 1.2-3.85 0-2.8-2.05-4.75-2.05-2-4.95-2-2.45 0-3.5.3 1.15-2.3 2.2-6.1.65-2.2-.5-4.2-.75-1.25-1.8-1.95-.8-.5-1.75-.75-2.35-.65-4.5.5z" fill="url(#aA)" transform="translate(854 160)"/><g transform="translate(894 160)"><path d="m-13.6 3.45q-.9 3.3.35 7.05.1.25.15.55 1.8 5.4 7.2 7.6l-3.7-19.45q-3 1.05-4 4.25z" fill="url(#aB)"/><path d="m12.7-1.85q-1.3-1.3-3.1-1.3-.3-.45-.7-.85-1.2-1.25-2.9-1.3.35-4.5.65-10.3.05-1.35-.6-2.4-.25-.3-.5-.6-1.2-1.3-2.95-1.4-1.75-.05-3.05 1.1-.45.4-.75.9-.6.9-.65 2.05-.15 3.65-.35 6.75l-.35.05q-.4-3.3-.95-7.15-.15-.95-.6-1.7-.45-.6-1.05-1.1-1.4-1-3.2-.75-1.7.25-2.75 1.65-.1.1-.15.2-.9 1.25-.65 2.85 1.2 8.6 2.3 14.35l3.7 19.45q1.85.75 4.05 1.2 4.95.75 9.4-2.2 4.7-3.2 5.65-9 0-.1 0-.15 0-.05.05-.15.3-2.35.5-3.9.25-2.75.25-3.2 0-.3 0-.55-.2-1.45-1.3-2.55z" fill="url(#aC)"/></g><path d="m-1.55-15.3q-.2-1.6-1.4-2.65-.1-.05-.15-.1-1.35-1.05-3.05-.85-1.25.15-2.15.95-.3.25-.55.6-1.05 1.35-.85 3.05.85 6.7 1.5 13.25.15 1.05.25 2.1-1.85-1.35-3.9-2.5-1.5-.85-3.15-.4-1.6.45-2.45 1.95-.85 1.45-.4 3.1.45 1.65 1.95 2.5 2.95 1.7 5.25 3.7 1.8 1.6 3.15 3.4 2.6 4.7 7.3 5.95 1.15.25 2.4.25 4.65 0 8.25-3.5.6-.65 1.15-1.3 2.5-3.05 3.95-10.45.45-2.35.95-4.65.9-4.3 1.45-8.55.25-1.7-.8-3.05-1-1.35-2.7-1.6-1.65-.25-3 .8-1.4 1.05-1.6 2.75-.45 3.1-1.05 6.25-2.1-.8-5.05-1.2-2.45-.3-4.15.1-.55-4.9-1.15-9.9z" fill="url(#aD)" transform="translate(936 159.95)"/><path d="m4.15-18.5q-1.5-.85-3.1-.3-.85.25-1.4.8-.6.5-.95 1.25-.8 1.55-.3 3.2 1.35 4.6 1.65 9.4-1.9-4.9-5.3-9.55-1.05-1.35-2.7-1.6-1.7-.25-3 .85-1.35 1.05-1.6 2.75-.2 1.75.8 3.15 3.15 4.2 4.65 8.7.8 2.3.8 5.55-1.7-1.55-3.65-3.7-1.2-1.3-2.85-1.35-1.7-.05-2.9 1.15-1.25 1.2-1.3 2.95-.05 1.7 1.1 3 .95 1.05 1.85 1.95 2.4 2.5 4.55 4.1.05.05.1.05l1.25.8q3.8 2.8 8.5 4.05 7.1 1.35 11-3.65.15-.2.3-.4.35-.55.7-1.05 2.45-4.55 3.5-13.1l.7-4.4q.3-1.7.4-3.45.05-.45.05-.9.05-1.75-1.1-3-1.2-1.25-2.85-1.3-1.7-.05-2.9 1.15-1.25 1.2-1.3 2.95-.05 2.35-.65 4.65-.3-6.25-2.05-12.2-.35-1.25-1.25-2-.35-.3-.75-.5z" fill="url(#aE)" transform="translate(981 160)"/><g transform="translate(1024.95 160)"><path d="m-12.4-5.65q-.55.25-1.05.55-4.7 2.65-3.15 9.45 1.5 6.8 5.65 9.7 2.45 1.75 5.75 2.45z" fill="url(#aF)"/><path d="m16.4-7.5q-.95-4.4-5.6-5.2-1.75-.35-3.2-.2-1-3.9-6.45-4.1-4.75-.3-6.15 3.25-1.85-2.6-6.1-.2-4.05 2.25-1.3 8.3l7.2 22.15q2.25.5 4.9.5 6.5 0 11.05-4.15.55-.55 1.05-1.1 7.1-8.85 4.6-19.25z" fill="url(#aG)"/></g><g transform="translate(264.95 330)"><path d="m-12.4-5.65q-.55.25-1.05.55-4.7 2.65-3.15 9.45 1.5 6.8 5.65 9.7 2.45 1.75 5.75 2.45z" fill="url(#aH)"/><path d="m16.4-7.5q-.95-4.4-5.6-5.2-1.75-.35-3.2-.2-1-3.9-6.45-4.1-4.75-.3-6.15 3.25-1.85-2.6-6.1-.2-4.05 2.25-1.3 8.3l7.2 22.15q2.25.5 4.9.5 6.5 0 11.05-4.15.55-.55 1.05-1.1 7.1-8.85 4.6-19.25z" fill="url(#aI)"/></g><path d="m4.15-18.5q-1.5-.85-3.1-.3-.85.25-1.4.8-.6.5-.95 1.25-.8 1.55-.3 3.2 1.35 4.6 1.65 9.4-1.9-4.9-5.3-9.55-1.05-1.35-2.7-1.6-1.7-.25-3 .85-1.35 1.05-1.6 2.75-.2 1.75.8 3.15 3.15 4.2 4.65 8.7.8 2.3.8 5.55-1.7-1.55-3.65-3.7-1.2-1.3-2.85-1.35-1.7-.05-2.9 1.15-1.25 1.2-1.3 2.95-.05 1.7 1.1 3 .95 1.05 1.85 1.95 2.4 2.5 4.55 4.1.05.05.1.05l1.25.8q3.8 2.8 8.5 4.05 7.1 1.35 11-3.65.15-.2.3-.4.35-.55.7-1.05 2.45-4.55 3.5-13.1l.7-4.4q.3-1.7.4-3.45.05-.45.05-.9.05-1.75-1.1-3-1.2-1.25-2.85-1.3-1.7-.05-2.9 1.15-1.25 1.2-1.3 2.95-.05 2.35-.65 4.65-.3-6.25-2.05-12.2-.35-1.25-1.25-2-.35-.3-.75-.5z" fill="url(#aJ)" transform="translate(221 330)"/><path d="m-1.55-15.3q-.2-1.6-1.4-2.65-.1-.05-.15-.1-1.35-1.05-3.05-.85-1.25.15-2.15.95-.3.25-.55.6-1.05 1.35-.85 3.05.85 6.7 1.5 13.25.15 1.05.25 2.1-1.85-1.35-3.9-2.5-1.5-.85-3.15-.4-1.6.45-2.45 1.95-.85 1.45-.4 3.1.45 1.65 1.95 2.5 2.95 1.7 5.25 3.7 1.8 1.6 3.15 3.4 2.6 4.7 7.3 5.95 1.15.25 2.4.25 4.65 0 8.25-3.5.6-.65 1.15-1.3 2.5-3.05 3.95-10.45.45-2.35.95-4.65.9-4.3 1.45-8.55.25-1.7-.8-3.05-1-1.35-2.7-1.6-1.65-.25-3 .8-1.4 1.05-1.6 2.75-.45 3.1-1.05 6.25-2.1-.8-5.05-1.2-2.45-.3-4.15.1-.55-4.9-1.15-9.9z" fill="url(#aK)" transform="translate(176 329.95)"/><g transform="translate(134 330)"><path d="m-13.6 3.45q-.9 3.3.35 7.05.1.25.15.55 1.8 5.4 7.2 7.6l-3.7-19.45q-3 1.05-4 4.25z" fill="url(#aL)"/><path d="m12.7-1.85q-1.3-1.3-3.1-1.3-.3-.45-.7-.85-1.2-1.25-2.9-1.3.35-4.5.65-10.3.05-1.35-.6-2.4-.25-.3-.5-.6-1.2-1.3-2.95-1.4-1.75-.05-3.05 1.1-.45.4-.75.9-.6.9-.65 2.05-.15 3.65-.35 6.75l-.35.05q-.4-3.3-.95-7.15-.15-.95-.6-1.7-.45-.6-1.05-1.1-1.4-1-3.2-.75-1.7.25-2.75 1.65-.1.1-.15.2-.9 1.25-.65 2.85 1.2 8.6 2.3 14.35l3.7 19.45q1.85.75 4.05 1.2 4.95.75 9.4-2.2 4.7-3.2 5.65-9 0-.1 0-.15 0-.05.05-.15.3-2.35.5-3.9.25-2.75.25-3.2 0-.3 0-.55-.2-1.45-1.3-2.55z" fill="url(#aM)"/></g><path d="m-.95-18.25q-.2.1-.4.25-1.75 1.15-2.35 3.15-.9 3.15-2.75 5.95-1.2 1.9-2.85 3.6-.2.2-.4.45-4.7 4.15-5.45 6.9-.85 2.1-.85 4.5 0 5.15 3.8 8.8 3.8 3.65 9.15 3.65 3.05 0 4.35 0 2.95 0 5.2 0 2.9 0 4.95-1.95 1.5-1.45 1.1-4.55 2.85-.2 3.45-3.65 0-.2 0-.4 0-2.2-1.3-3.9 1.2-1.7 1.2-3.85 0-2.8-2.05-4.75-2.05-2-4.95-2-2.45 0-3.5.3 1.15-2.3 2.2-6.1.65-2.2-.5-4.2-.75-1.25-1.8-1.95-.8-.5-1.75-.75-2.35-.65-4.5.5z" fill="url(#aN)" transform="translate(94 330)"/><g transform="translate(51 329.95)"><path d="m-2.4-9.15q0-.85-.1-1.65-.2-2.1-1.95-3.45-1.6-1.25-3.8-1.1-2.15.2-3.55 1.8-1.4 1.7-1.2 3.65.25 2.8-.1 5.2-.5 3.45-2.45 6.1-.15.2-.25.3z" fill="url(#aO)"/><path d="m15.85-16q-1.3-1.65-3.45-1.9-.25-.05-.5-.05-.3 0-.55 0-1.5.1-2.8 1-5.5 3.95-10.95 7.8l-13.4 10.85q-2 3.75-.6 8.3.4 1 .95 1.95 2.55 4.15 7.7 5.5 3.9 1.05 7.55.1.6-.15 1.2-.35l6.1-1.95q.5-.15.95-.3.15-.05.3-.1 2.1-1 3-3 1.05-2.25.05-4.4-.15-.35-.35-.7.35-.7.55-1.5.6-2.25-.6-4.3-.9-1.4-2.35-2.15l-.05-.05-2.55-1.3q4.35-3.15 8.8-6.3 1.75-1.3 2.1-3.4.25-2.05-1.1-3.75z" fill="url(#aP)"/></g><g transform="translate(431 329.95)"><path d="m-2.4-9.15q0-.85-.1-1.65-.2-2.1-1.95-3.45-1.6-1.25-3.8-1.1-2.15.2-3.55 1.8-1.4 1.7-1.2 3.65.25 2.8-.1 5.2-.5 3.45-2.45 6.1-.15.2-.25.3z" fill="url(#aQ)"/><path d="m15.85-16q-1.3-1.65-3.45-1.9-.25-.05-.5-.05-.3 0-.55 0-1.5.1-2.8 1-5.5 3.95-10.95 7.8l-13.4 10.85q-2 3.75-.6 8.3.4 1 .95 1.95 2.55 4.15 7.7 5.5 3.9 1.05 7.55.1.6-.15 1.2-.35l6.1-1.95q.5-.15.95-.3.15-.05.3-.1 2.1-1 3-3 1.05-2.25.05-4.4-.15-.35-.35-.7.35-.7.55-1.5.6-2.25-.6-4.3-.9-1.4-2.35-2.15l-.05-.05-2.55-1.3q4.35-3.15 8.8-6.3 1.75-1.3 2.1-3.4.25-2.05-1.1-3.75z" fill="url(#aR)"/></g><path d="m-.95-18.25q-.2.1-.4.25-1.75 1.15-2.35 3.15-.9 3.15-2.75 5.95-1.2 1.9-2.85 3.6-.2.2-.4.45-4.7 4.15-5.45 6.9-.85 2.1-.85 4.5 0 5.15 3.8 8.8 3.8 3.65 9.15 3.65 3.05 0 4.35 0 2.95 0 5.2 0 2.9 0 4.95-1.95 1.5-1.45 1.1-4.55 2.85-.2 3.45-3.65 0-.2 0-.4 0-2.2-1.3-3.9 1.2-1.7 1.2-3.85 0-2.8-2.05-4.75-2.05-2-4.95-2-2.45 0-3.5.3 1.15-2.3 2.2-6.1.65-2.2-.5-4.2-.75-1.25-1.8-1.95-.8-.5-1.75-.75-2.35-.65-4.5.5z" fill="url(#aS)" transform="translate(474 330)"/><g transform="translate(514 330)"><path d="m-13.6 3.45q-.9 3.3.35 7.05.1.25.15.55 1.8 5.4 7.2 7.6l-3.7-19.45q-3 1.05-4 4.25z" fill="url(#aT)"/><path d="m12.7-1.85q-1.3-1.3-3.1-1.3-.3-.45-.7-.85-1.2-1.25-2.9-1.3.35-4.5.65-10.3.05-1.35-.6-2.4-.25-.3-.5-.6-1.2-1.3-2.95-1.4-1.75-.05-3.05 1.1-.45.4-.75.9-.6.9-.65 2.05-.15 3.65-.35 6.75l-.35.05q-.4-3.3-.95-7.15-.15-.95-.6-1.7-.45-.6-1.05-1.1-1.4-1-3.2-.75-1.7.25-2.75 1.65-.1.1-.15.2-.9 1.25-.65 2.85 1.2 8.6 2.3 14.35l3.7 19.45q1.85.75 4.05 1.2 4.95.75 9.4-2.2 4.7-3.2 5.65-9 0-.1 0-.15 0-.05.05-.15.3-2.35.5-3.9.25-2.75.25-3.2 0-.3 0-.55-.2-1.45-1.3-2.55z" fill="url(#aU)"/></g><path d="m-1.55-15.3q-.2-1.6-1.4-2.65-.1-.05-.15-.1-1.35-1.05-3.05-.85-1.25.15-2.15.95-.3.25-.55.6-1.05 1.35-.85 3.05.85 6.7 1.5 13.25.15 1.05.25 2.1-1.85-1.35-3.9-2.5-1.5-.85-3.15-.4-1.6.45-2.45 1.95-.85 1.45-.4 3.1.45 1.65 1.95 2.5 2.95 1.7 5.25 3.7 1.8 1.6 3.15 3.4 2.6 4.7 7.3 5.95 1.15.25 2.4.25 4.65 0 8.25-3.5.6-.65 1.15-1.3 2.5-3.05 3.95-10.45.45-2.35.95-4.65.9-4.3 1.45-8.55.25-1.7-.8-3.05-1-1.35-2.7-1.6-1.65-.25-3 .8-1.4 1.05-1.6 2.75-.45 3.1-1.05 6.25-2.1-.8-5.05-1.2-2.45-.3-4.15.1-.55-4.9-1.15-9.9z" fill="url(#aV)" transform="translate(556 329.95)"/><path d="m4.15-18.5q-1.5-.85-3.1-.3-.85.25-1.4.8-.6.5-.95 1.25-.8 1.55-.3 3.2 1.35 4.6 1.65 9.4-1.9-4.9-5.3-9.55-1.05-1.35-2.7-1.6-1.7-.25-3 .85-1.35 1.05-1.6 2.75-.2 1.75.8 3.15 3.15 4.2 4.65 8.7.8 2.3.8 5.55-1.7-1.55-3.65-3.7-1.2-1.3-2.85-1.35-1.7-.05-2.9 1.15-1.25 1.2-1.3 2.95-.05 1.7 1.1 3 .95 1.05 1.85 1.95 2.4 2.5 4.55 4.1.05.05.1.05l1.25.8q3.8 2.8 8.5 4.05 7.1 1.35 11-3.65.15-.2.3-.4.35-.55.7-1.05 2.45-4.55 3.5-13.1l.7-4.4q.3-1.7.4-3.45.05-.45.05-.9.05-1.75-1.1-3-1.2-1.25-2.85-1.3-1.7-.05-2.9 1.15-1.25 1.2-1.3 2.95-.05 2.35-.65 4.65-.3-6.25-2.05-12.2-.35-1.25-1.25-2-.35-.3-.75-.5z" fill="url(#aW)" transform="translate(601 330)"/><g transform="translate(644.95 330)"><path d="m-12.4-5.65q-.55.25-1.05.55-4.7 2.65-3.15 9.45 1.5 6.8 5.65 9.7 2.45 1.75 5.75 2.45z" fill="url(#aX)"/><path d="m16.4-7.5q-.95-4.4-5.6-5.2-1.75-.35-3.2-.2-1-3.9-6.45-4.1-4.75-.3-6.15 3.25-1.85-2.6-6.1-.2-4.05 2.25-1.3 8.3l7.2 22.15q2.25.5 4.9.5 6.5 0 11.05-4.15.55-.55 1.05-1.1 7.1-8.85 4.6-19.25z" fill="url(#aY)"/></g><g transform="translate(811 329.95)"><path d="m-2.4-9.15q0-.85-.1-1.65-.2-2.1-1.95-3.45-1.6-1.25-3.8-1.1-2.15.2-3.55 1.8-1.4 1.7-1.2 3.65.25 2.8-.1 5.2-.5 3.45-2.45 6.1-.15.2-.25.3z" fill="url(#aZ)"/><path d="m15.85-16q-1.3-1.65-3.45-1.9-.25-.05-.5-.05-.3 0-.55 0-1.5.1-2.8 1-5.5 3.95-10.95 7.8l-13.4 10.85q-2 3.75-.6 8.3.4 1 .95 1.95 2.55 4.15 7.7 5.5 3.9 1.05 7.55.1.6-.15 1.2-.35l6.1-1.95q.5-.15.95-.3.15-.05.3-.1 2.1-1 3-3 1.05-2.25.05-4.4-.15-.35-.35-.7.35-.7.55-1.5.6-2.25-.6-4.3-.9-1.4-2.35-2.15l-.05-.05-2.55-1.3q4.35-3.15 8.8-6.3 1.75-1.3 2.1-3.4.25-2.05-1.1-3.75z" fill="url(#a0)"/></g><path d="m-.95-18.25q-.2.1-.4.25-1.75 1.15-2.35 3.15-.9 3.15-2.75 5.95-1.2 1.9-2.85 3.6-.2.2-.4.45-4.7 4.15-5.45 6.9-.85 2.1-.85 4.5 0 5.15 3.8 8.8 3.8 3.65 9.15 3.65 3.05 0 4.35 0 2.95 0 5.2 0 2.9 0 4.95-1.95 1.5-1.45 1.1-4.55 2.85-.2 3.45-3.65 0-.2 0-.4 0-2.2-1.3-3.9 1.2-1.7 1.2-3.85 0-2.8-2.05-4.75-2.05-2-4.95-2-2.45 0-3.5.3 1.15-2.3 2.2-6.1.65-2.2-.5-4.2-.75-1.25-1.8-1.95-.8-.5-1.75-.75-2.35-.65-4.5.5z" fill="url(#a1)" transform="translate(854 330)"/><g transform="translate(894 330)"><path d="m-13.6 3.45q-.9 3.3.35 7.05.1.25.15.55 1.8 5.4 7.2 7.6l-3.7-19.45q-3 1.05-4 4.25z" fill="url(#a2)"/><path d="m12.7-1.85q-1.3-1.3-3.1-1.3-.3-.45-.7-.85-1.2-1.25-2.9-1.3.35-4.5.65-10.3.05-1.35-.6-2.4-.25-.3-.5-.6-1.2-1.3-2.95-1.4-1.75-.05-3.05 1.1-.45.4-.75.9-.6.9-.65 2.05-.15 3.65-.35 6.75l-.35.05q-.4-3.3-.95-7.15-.15-.95-.6-1.7-.45-.6-1.05-1.1-1.4-1-3.2-.75-1.7.25-2.75 1.65-.1.1-.15.2-.9 1.25-.65 2.85 1.2 8.6 2.3 14.35l3.7 19.45q1.85.75 4.05 1.2 4.95.75 9.4-2.2 4.7-3.2 5.65-9 0-.1 0-.15 0-.05.05-.15.3-2.35.5-3.9.25-2.75.25-3.2 0-.3 0-.55-.2-1.45-1.3-2.55z" fill="url(#a3)"/></g><path d="m-1.55-15.3q-.2-1.6-1.4-2.65-.1-.05-.15-.1-1.35-1.05-3.05-.85-1.25.15-2.15.95-.3.25-.55.6-1.05 1.35-.85 3.05.85 6.7 1.5 13.25.15 1.05.25 2.1-1.85-1.35-3.9-2.5-1.5-.85-3.15-.4-1.6.45-2.45 1.95-.85 1.45-.4 3.1.45 1.65 1.95 2.5 2.95 1.7 5.25 3.7 1.8 1.6 3.15 3.4.65 1.2 1.45 2.15 2.35 2.85 5.85 3.8 1.15.25 2.4.25 4.65 0 8.25-3.5.6-.65 1.15-1.3 1.9-2.35 3.2-7.2.4-1.5.75-3.25.45-2.35.95-4.65.9-4.3 1.45-8.55.25-1.7-.8-3.05-1-1.35-2.7-1.6-1.65-.25-3 .8-1.4 1.05-1.6 2.75-.45 3.1-1.05 6.25-2.1-.8-5.05-1.2-2.45-.3-4.15.1-.55-4.9-1.15-9.9z" fill="url(#a4)" transform="translate(936 329.95)"/><path d="m4.15-18.5q-1.5-.85-3.1-.3-.85.25-1.4.8-.6.5-.95 1.25-.8 1.55-.3 3.2 1.35 4.6 1.65 9.4-1.9-4.9-5.3-9.55-1.05-1.35-2.7-1.6-1.7-.25-3 .85-1.35 1.05-1.6 2.75-.2 1.75.8 3.15 3.15 4.2 4.65 8.7.8 2.3.8 5.55-1.7-1.55-3.65-3.7-1.2-1.3-2.85-1.35-1.7-.05-2.9 1.15-1.25 1.2-1.3 2.95-.05 1.2.55 2.2.2.4.55.8.95 1.05 1.85 1.95 2.4 2.5 4.55 4.1.05.05.1.05l1.25.8q3.8 2.8 8.5 4.05 7.1 1.35 11-3.65.15-.2.3-.4.35-.55.7-1.05 1.45-2.65 2.4-6.65.65-2.9 1.1-6.45l.7-4.4q.3-1.7.4-3.45.05-.45.05-.9.05-1.75-1.1-3-1.2-1.25-2.85-1.3-1.7-.05-2.9 1.15-1.25 1.2-1.3 2.95-.05 2.35-.65 4.65-.3-6.25-2.05-12.2-.35-1.25-1.25-2-.35-.3-.75-.5z" fill="url(#a5)" transform="translate(981 330)"/><g transform="translate(1024.95 330)"><path d="m-12.4-5.65q-.55.25-1.05.55-4.7 2.65-3.15 9.45.3 1.4.75 2.6 1.6 4.8 4.9 7.1 2.45 1.75 5.75 2.45z" fill="url(#a6)"/><path d="m16.4-7.5q-.95-4.4-5.6-5.2-1.75-.35-3.2-.2-1-3.9-6.45-4.1-4.75-.3-6.15 3.25-1.85-2.6-6.1-.2-4.05 2.25-1.3 8.3l7.2 22.15q2.25.5 4.9.5 6.5 0 11.05-4.15.55-.55 1.05-1.1 1.9-2.35 3.1-4.8 3.35-6.8 1.5-14.45z" fill="url(#a7)"/></g><path d="m7.05-7.05q-2.9-2.95-7.05-2.95-4.15 0-7.05 2.95-2.95 2.95-2.95 7.05 0 4.15 2.95 7.05 2.9 2.95 7.05 2.95 4.15 0 7.05-2.95 2.95-2.9 2.95-7.05 0-4.1-2.95-7.05z" fill="#fff" transform="translate(40 400)"/><path d="m4.25-4.2q-1.75-1.8-4.25-1.8-2.45 0-4.2 1.8-1.8 1.75-1.8 4.2 0 2.5 1.8 4.25 1.75 1.75 4.2 1.75 2.5 0 4.25-1.75 1.75-1.75 1.75-4.25 0-2.45-1.75-4.2z" fill="#3d465d" transform="translate(40 400)"/><path d="m0 5q4.15 0 7.05-2.95 2.95-2.9 2.95-7.05h-20q0 4.15 2.95 7.05 2.9 2.95 7.05 2.95z" fill="#fff" transform="translate(40 465)"/><path d="m4.25-.75q1.75-1.75 1.75-4.25h-12q0 2.5 1.8 4.25 1.75 1.75 4.2 1.75 2.5 0 4.25-1.75z" fill="#3d465d" transform="translate(40 465)"/><path d="m7.05-2.05q-2.9-2.95-7.05-2.95-4.15 0-7.05 2.95-2.95 2.9-2.95 7.05h20q0-4.15-2.95-7.05z" fill="#fff" transform="translate(40 435)"/><path d="m6 5q0-2.5-1.75-4.25-1.75-1.75-4.25-1.75-2.45 0-4.2 1.75-1.8 1.75-1.8 4.25z" fill="#3d465d" transform="translate(40 435)"/><path d="m-22.05-11.55q-2.95 2.95-2.95 7.05 0 4.15 2.95 7.05 2.9 2.95 7.05 2.95 4.15 0 7.05-2.95 2.95-2.9 2.95-7.05 0-4.1-2.95-7.05-2.9-2.95-7.05-2.95-4.15 0-7.05 2.95z" fill="#fff" transform="translate(55 524.5)"/><path d="m-10.75-.25q1.75-1.75 1.75-4.25 0-2.45-1.75-4.2-1.75-1.8-4.25-1.8-2.45 0-4.2 1.8-1.8 1.75-1.8 4.2 0 2.5 1.8 4.25 1.75 1.75 4.2 1.75 2.5 0 4.25-1.75z" fill="#3d465d" transform="translate(55 524.5)"/><path d="m7.95-11.55q-2.95 2.95-2.95 7.05 0 4.15 2.95 7.05 2.9 2.95 7.05 2.95 4.15 0 7.05-2.95 2.95-2.9 2.95-7.05 0-4.1-2.95-7.05-2.9-2.95-7.05-2.95-4.15 0-7.05 2.95z" fill="#fff" transform="translate(55 524.5)"/><path d="m19.25-.25q1.75-1.75 1.75-4.25 0-2.45-1.75-4.2-1.75-1.8-4.25-1.8-2.45 0-4.2 1.8-1.8 1.75-1.8 4.2 0 2.5 1.8 4.25 1.75 1.75 4.2 1.75 2.5 0 4.25-1.75z" fill="#3d465d" transform="translate(55 524.5)"/><path d="m8.2 11.95v-.05q.6-.45 1.15-.9.6-.55.65-1.35.05-.85-.5-1.45-.55-.65-1.35-.7-.85-.05-1.45.5-.4.35-.85.7h-.05q-2.4 1.8-5.8 1.8-3.5 0-5.95-1.8-.3-.25-.55-.5-.55-.65-1.35-.7-.85-.05-1.45.5-.65.55-.7 1.4-.05.8.5 1.45.45.5 1.1 1 .05 0 .05.05 3.45 2.6 8.35 2.6 4.8 0 8.2-2.55z" fill="#3d465d" transform="translate(55 524.5)"/><path d="m25-7h-20q0 4.15 2.95 7.05 2.9 2.95 7.05 2.95 4.15 0 7.05-2.95 2.95-2.9 2.95-7.05z" fill="#fff" transform="translate(145 527)"/><path d="m19.25-2.75q1.75-1.75 1.75-4.25h-12q0 2.5 1.8 4.25 1.75 1.75 4.2 1.75 2.5 0 4.25-1.75z" fill="#3d465d" transform="translate(145 527)"/><path d="m-5-7h-20q0 4.15 2.95 7.05 2.9 2.95 7.05 2.95 4.15 0 7.05-2.95 2.95-2.9 2.95-7.05z" fill="#fff" transform="translate(145 527)"/><path d="m-10.75-2.75q1.75-1.75 1.75-4.25h-12q0 2.5 1.8 4.25 1.75 1.75 4.2 1.75 2.5 0 4.25-1.75z" fill="#3d465d" transform="translate(145 527)"/><path d="m-24.4-7.55q.55.55 1.4.55h16q.85 0 1.45-.55.55-.6.55-1.45v-1q0-.85-.55-1.4-.6-.6-1.45-.6h-16q-.85 0-1.4.6-.6.55-.6 1.4v1q0 .85.6 1.45z" fill="#3d465d" transform="translate(145 527)"/><path d="m5.6-7.55q.55.55 1.4.55h16q.85 0 1.45-.55.55-.6.55-1.45v-1q0-.85-.55-1.4-.6-.6-1.45-.6h-16q-.85 0-1.4.6-.6.55-.6 1.4v1q0 .85.6 1.45z" fill="#3d465d" transform="translate(145 527)"/><path d="m5.85 10.85q.45.3.85.65.6.55 1.45.5.8-.05 1.35-.65.55-.65.5-1.45-.05-.85-.65-1.4-.55-.45-1.15-.9-3.4-2.6-8.2-2.6-4.9 0-8.35 2.6 0 .05-.05.05-.65.5-1.1 1.05-.55.6-.5 1.45.05.8.7 1.35.6.55 1.45.5.8-.05 1.35-.65.25-.3.55-.55 2.45-1.8 5.95-1.8 3.4 0 5.8 1.8z" fill="#3d465d" transform="translate(145 527)"/><path d="m-22.35-4.35q.8-.8 1.7-1.35-4.3 2.5-7.2 2.35-2.35 0-1 1.5l3.9 3.85q0-3.75 2.6-6.35m43.05-1.35q.9.55 1.7 1.35 2.6 2.6 2.6 6.35l3.9-3.85q1.35-1.5-1-1.5-2.9.15-7.2-2.35z" fill="#3d465d" transform="translate(234.95 518)"/><path d="m-7.9-5.05q-2.9-2.95-7.05-2.95-4.15 0-7.05 2.95-2.95 2.9-2.95 7.05h20q0-4.15-2.95-7.05z" fill="#fff" transform="translate(234.95 518)"/><path d="m-10.7-2.25q-1.75-1.75-4.25-1.75-2.45 0-4.2 1.75-1.8 1.75-1.8 4.25h12q0-2.5-1.75-4.25z" fill="#3d465d" transform="translate(234.95 518)"/><path d="m22.1-5.05q-2.9-2.95-7.05-2.95-4.15 0-7.05 2.95-2.95 2.9-2.95 7.05h20q0-4.15-2.95-7.05z" fill="#fff" transform="translate(234.95 518)"/><path d="m19.3-2.25q-1.75-1.75-4.25-1.75-2.45 0-4.2 1.75-1.8 1.75-1.8 4.25h12q0-2.5-1.75-4.25z" fill="#3d465d" transform="translate(234.95 518)"/><path d="m-23.95-11q0 .4.3.7.3.3.7.3h13q.4 0 .7-.3.3-.3.3-.7v-3q0-.4-.3-.7-.3-.3-.7-.3h-3.85q-.15 0-.25.05l-9.15 2.3q-.35.05-.55.35-.2.25-.2.6z" fill="#3d465d" transform="translate(234.95 518)"/><path d="m9.35-10.3q.3.3.7.3h13q.4 0 .7-.3.3-.3.3-.7v-.7q0-.35-.2-.6-.2-.3-.55-.35l-9.15-2.3q-.1-.05-.25-.05h-3.85q-.4 0-.7.3-.3.3-.3.7v3q0 .4.3.7z" fill="#3d465d" transform="translate(234.95 518)"/><path d="m8.2 11.95v-.05q.6-.45 1.15-.9.6-.55.65-1.35.05-.85-.5-1.45-.55-.65-1.35-.7-.85-.05-1.45.5-.4.35-.85.7h-.05q-2.4 1.8-5.8 1.8-3.5 0-5.95-1.8-.3-.25-.55-.5-.55-.65-1.35-.7-.85-.05-1.45.5-.65.55-.7 1.4-.05.8.5 1.45.45.5 1.1 1 .05 0 .05.05 3.45 2.6 8.35 2.6 4.8 0 8.2-2.55z" fill="#3d465d" transform="translate(234.95 518)"/><path d="m-7.95-3.15q-2.9-2.95-7.05-2.95-4.15 0-7.05 2.95-2.95 2.9-2.95 7.05h20q0-4.15-2.95-7.05z" fill="#fff" transform="translate(325 516.1)"/><path d="m-10.75-.35q-1.75-1.75-4.25-1.75-2.45 0-4.2 1.75-1.8 1.75-1.8 4.25h12q0-2.5-1.75-4.25z" fill="#3d465d" transform="translate(325 516.1)"/><path d="m22.05-3.15q-2.9-2.95-7.05-2.95-4.15 0-7.05 2.95-2.95 2.9-2.95 7.05h20q0-4.15-2.95-7.05z" fill="#fff" transform="translate(325 516.1)"/><path d="m19.25-.35q-1.75-1.75-4.25-1.75-2.45 0-4.2 1.75-1.8 1.75-1.8 4.25h12q0-2.5-1.75-4.25z" fill="#3d465d" transform="translate(325 516.1)"/><path d="m-26.05-3.5.8 2.9q.2.85.9 1.25.7.4 1.5.2l15.45-4.15q.85-.2 1.25-.95.4-.65.2-1.5l-.8-2.9q-.2-.8-.9-1.25-.7-.35-1.55-.15l-15.45 4.15q-.8.2-1.2.9-.4.7-.2 1.5z" fill="#3d465d" transform="translate(325 516.1)"/><path d="m6.2-9.15q.35.65 1.2.85l15.45 4.15q.8.25 1.55-.1.65-.45.85-1.25l.8-2.9q.2-.85-.15-1.5-.45-.75-1.25-1l-15.45-4.15q-.85-.2-1.5.25-.75.35-.95 1.2l-.8 2.9q-.2.8.25 1.55z" fill="#3d465d" transform="translate(325 516.1)"/><path d="m9.95 10.8q-.7-.45-1.55-.2-.8.2-1.25.85-.4.55-1.15 1.05-1.85 1.15-4.35 1.15-1.15 0-2.15-.2-.85-.15-1.55.3-.7.35-.9 1.2-.2.75.3 1.45.4.6 1.3.8 1.35.3 3 .3 3.85 0 6.65-1.8l-.05.05q1.7-1.05 2.5-2.35.4-.7.2-1.45-.25-.8-1-1.15z" fill="#3d465d" transform="translate(325 516.1)"/><path d="m-4.95-.6h-20q0 4.15 2.95 7.05 2.9 2.95 7.05 2.95 4.15 0 7.05-2.95 2.95-2.9 2.95-7.05z" fill="#fff" transform="translate(324.95 580.6)"/><path d="m-8.95-.6h-12q0 2.5 1.8 4.25 1.75 1.75 4.2 1.75 2.5 0 4.25-1.75 1.75-1.75 1.75-4.25z" fill="#3d465d" transform="translate(324.95 580.6)"/><path d="m25.05-.6h-20q0 4.15 2.95 7.05 2.9 2.95 7.05 2.95 4.15 0 7.05-2.95 2.95-2.9 2.95-7.05z" fill="#fff" transform="translate(324.95 580.6)"/><path d="m21.05-.6h-12q0 2.5 1.8 4.25 1.75 1.75 4.2 1.75 2.5 0 4.25-1.75 1.75-1.75 1.75-4.25z" fill="#3d465d" transform="translate(324.95 580.6)"/><path d="m-25.15-4.8q.75.4 1.55.2l19.3-5.2q.85-.2 1.2-.9.45-.7.25-1.55l-1.05-3.85q-.2-.85-.95-1.2-.65-.45-1.5-.25l-19.3 5.2q-.8.2-1.25.95-.4.65-.2 1.5l1.05 3.85q.2.85.9 1.25z" fill="#3d465d" transform="translate(324.95 580.6)"/><path d="m3.15-6.75q.4.75 1.2 1l19.3 5.15q.85.2 1.55-.2.7-.4.9-1.25l1.05-3.85q.2-.85-.2-1.5-.4-.75-1.25-.95l-19.3-5.15q-.8-.25-1.5.15-.75.4-.95 1.25l-1.05 3.85q-.2.85.25 1.5z" fill="#3d465d" transform="translate(324.95 580.6)"/><path d="m9.95 10.8q-.7-.45-1.55-.2-.8.2-1.25.85-.4.55-1.15 1.05-1.85 1.15-4.35 1.15-1.15 0-2.15-.2-.85-.15-1.55.3-.7.35-.9 1.2-.2.75.3 1.45.4.6 1.3.8 1.35.3 3 .3 3.85 0 6.65-1.8l-.05.05q1.7-1.05 2.5-2.35.4-.7.2-1.45-.25-.8-1-1.15z" fill="#37393f" transform="translate(324.95 580.6)"/><path d="m-7.95-6.3q-2.9-2.95-7.05-2.95-4.15 0-7.05 2.95-2.95 2.9-2.95 7.05h20q0-4.15-2.95-7.05z" fill="#fff" transform="translate(235 579.25)"/><path d="m-10.75-3.5q-1.75-1.75-4.25-1.75-2.45 0-4.2 1.75-1.8 1.75-1.8 4.25h12q0-2.5-1.75-4.25z" fill="#3d465d" transform="translate(235 579.25)"/><path d="m22.05-6.3q-2.9-2.95-7.05-2.95-4.15 0-7.05 2.95-2.95 2.9-2.95 7.05h20q0-4.15-2.95-7.05z" fill="#fff" transform="translate(235 579.25)"/><path d="m19.25-3.5q-1.75-1.75-4.25-1.75-2.45 0-4.2 1.75-1.8 1.75-1.8 4.25h12q0-2.5-1.75-4.25z" fill="#3d465d" transform="translate(235 579.25)"/><path d="m-26.85-8.85q.35.7 1.2.9l19.3 5.2q.8.2 1.55-.2.7-.4.9-1.25l1.05-3.85q.2-.85-.2-1.5-.45-.75-1.25-.95l-19.3-5.2q-.85-.2-1.5.25-.75.35-.95 1.2l-1.05 3.85q-.2.85.25 1.55z" fill="#3d465d" transform="translate(235 579.25)"/><path d="m4.8-2.95q.75.4 1.55.2l19.3-5.2q.85-.2 1.2-.9.45-.7.25-1.55l-1.05-3.85q-.2-.85-.95-1.2-.65-.45-1.5-.25l-19.3 5.2q-.8.2-1.25.95-.4.65-.2 1.5l1.05 3.85q.2.85.9 1.25z" fill="#3d465d" transform="translate(235 579.25)"/><path d="m18.8 7.2q-1.15-1.45-2.7-1.45-16.5 4.15-32.3 0-1.55 0-2.7 1.45-1.1 1.45-1.1 3.45v.25q0 1.95 1.1 3.45 1.15 1.4 2.7 1.4 15.8-4.1 32.3 0 1.55 0 2.7-1.4 1.2-1.5 1.2-3.45v-.25q0-2-1.2-3.45z" fill="#fff" transform="translate(235 579.25)"/><path d="m-22.05-10.3q-2.95 2.95-2.95 7.05 0 4.15 2.95 7.05 2.9 2.95 7.05 2.95 4.15 0 7.05-2.95 2.95-2.9 2.95-7.05 0-4.1-2.95-7.05-2.9-2.95-7.05-2.95-4.15 0-7.05 2.95z" fill="#fff" transform="translate(145 583.25)"/><path d="m-19.2-7.45q-1.8 1.75-1.8 4.2 0 2.5 1.8 4.25 1.75 1.75 4.2 1.75 2.5 0 4.25-1.75 1.75-1.75 1.75-4.25 0-2.45-1.75-4.2-1.75-1.8-4.25-1.8-2.45 0-4.2 1.8z" fill="#3d465d" transform="translate(145 583.25)"/><path d="m7.95-10.3q-2.95 2.95-2.95 7.05 0 4.15 2.95 7.05 2.9 2.95 7.05 2.95 4.15 0 7.05-2.95 2.95-2.9 2.95-7.05 0-4.1-2.95-7.05-2.9-2.95-7.05-2.95-4.15 0-7.05 2.95z" fill="#fff" transform="translate(145 583.25)"/><path d="m10.8-7.45q-1.8 1.75-1.8 4.2 0 2.5 1.8 4.25 1.75 1.75 4.2 1.75 2.5 0 4.25-1.75 1.75-1.75 1.75-4.25 0-2.45-1.75-4.2-1.75-1.8-4.25-1.8-2.45 0-4.2 1.8z" fill="#3d465d" transform="translate(145 583.25)"/><path d="m-26.85-10.1q.35.7 1.2.9l19.3 5.2q.8.2 1.55-.2.7-.4.9-1.25l1.05-3.85q.2-.85-.2-1.5-.45-.75-1.25-.95l-19.3-5.2q-.85-.2-1.5.25-.75.35-.95 1.2l-1.05 3.85q-.2.85.25 1.55z" fill="#3d465d" transform="translate(145 583.25)"/><path d="m4.8-4.2q.75.4 1.55.2l19.3-5.2q.85-.2 1.2-.9.45-.7.25-1.55l-1.05-3.85q-.2-.85-.95-1.2-.65-.45-1.5-.25l-19.3 5.2q-.8.2-1.25.95-.4.65-.2 1.5l1.05 3.85q.2.85.9 1.25z" fill="#3d465d" transform="translate(145 583.25)"/><path d="m9.35 12.25q.6-.55.65-1.35.05-.85-.5-1.45-.55-.65-1.35-.7-.85-.05-1.45.5-.4.35-.85.7h-.05q-2.4 1.8-5.8 1.8-3.5 0-5.95-1.8-.3-.25-.55-.5-.55-.65-1.35-.7-.85-.05-1.45.5-.65.55-.7 1.4-.05.8.5 1.45.45.5 1.1 1 .05 0 .05.05 3.45 2.6 8.35 2.6 4.8 0 8.2-2.55v-.05q.6-.45 1.15-.9z" fill="#3d465d" transform="translate(145 583.25)"/><path d="m-15-9.85q-4.15 0-7.05 2.95-2.95 2.95-2.95 7.05 0 4.15 2.95 7.05 2.9 2.95 7.05 2.95 4.15 0 7.05-2.95 2.95-2.9 2.95-7.05 0-4.1-2.95-7.05-2.9-2.95-7.05-2.95z" fill="#fff" transform="translate(55 579.85)"/><path d="m-15-5.85q-2.45 0-4.2 1.8-1.8 1.75-1.8 4.2 0 2.5 1.8 4.25 1.75 1.75 4.2 1.75 2.5 0 4.25-1.75 1.75-1.75 1.75-4.25 0-2.45-1.75-4.2-1.75-1.8-4.25-1.8z" fill="#3d465d" transform="translate(55 579.85)"/><path d="m15-9.85q-4.15 0-7.05 2.95-2.95 2.95-2.95 7.05 0 4.15 2.95 7.05 2.9 2.95 7.05 2.95 4.15 0 7.05-2.95 2.95-2.9 2.95-7.05 0-4.1-2.95-7.05-2.9-2.95-7.05-2.95z" fill="#fff" transform="translate(55 579.85)"/><path d="m15-5.85q-2.45 0-4.2 1.8-1.8 1.75-1.8 4.2 0 2.5 1.8 4.25 1.75 1.75 4.2 1.75 2.5 0 4.25-1.75 1.75-1.75 1.75-4.25 0-2.45-1.75-4.2-1.75-1.8-4.25-1.8z" fill="#3d465d" transform="translate(55 579.85)"/><path d="m-26.85-5.45q.35.7 1.2.9l19.3 5.2q.8.2 1.55-.2.7-.4.9-1.25l1.05-3.85q.2-.85-.2-1.5-.45-.75-1.25-.95l-19.3-5.2q-.85-.2-1.5.25-.75.35-.95 1.2l-1.05 3.85q-.2.85.25 1.55z" fill="#3d465d" transform="translate(55 579.85)"/><path d="m4.3-13.15q-.8.25-1.2 1-.45.65-.25 1.5l1.05 3.85q.2.85.95 1.25.7.4 1.5.15l19.3-5.15q.85-.2 1.25-.95.4-.65.2-1.5l-1.05-3.85q-.2-.85-.9-1.25-.7-.4-1.55-.2z" fill="#3d465d" transform="translate(55 579.85)"/><path d="m9.95 14.3q-.7-.45-1.55-.2-.8.2-1.25.85-.4.55-1.15 1.05-1.85 1.15-4.35 1.15-1.15 0-2.15-.2-.85-.15-1.55.3-.7.35-.9 1.2-.2.75.3 1.45.4.6 1.3.8 1.35.3 3 .3 3.85 0 6.65-1.8l-.05.05q1.7-1.05 2.5-2.35.4-.7.2-1.45-.25-.8-1-1.15z" fill="#3d465d" transform="translate(55 579.85)"/><path d="m-15-8.2q-4.15 0-7.05 2.95-2.95 2.95-2.95 7.05 0 4.15 2.95 7.05 2.9 2.95 7.05 2.95 4.15 0 7.05-2.95 2.95-2.9 2.95-7.05 0-4.1-2.95-7.05-2.9-2.95-7.05-2.95z" fill="#fff" transform="translate(55 648.2)"/><path d="m-15-4.2q-2.45 0-4.2 1.8-1.8 1.75-1.8 4.2 0 2.5 1.8 4.25 1.75 1.75 4.2 1.75 2.5 0 4.25-1.75 1.75-1.75 1.75-4.25 0-2.45-1.75-4.2-1.75-1.8-4.25-1.8z" fill="#3d465d" transform="translate(55 648.2)"/><path d="m15-8.2q-4.15 0-7.05 2.95-2.95 2.95-2.95 7.05 0 4.15 2.95 7.05 2.9 2.95 7.05 2.95 4.15 0 7.05-2.95 2.95-2.9 2.95-7.05 0-4.1-2.95-7.05-2.9-2.95-7.05-2.95z" fill="#fff" transform="translate(55 648.2)"/><path d="m15-4.2q-2.45 0-4.2 1.8-1.8 1.75-1.8 4.2 0 2.5 1.8 4.25 1.75 1.75 4.2 1.75 2.5 0 4.25-1.75 1.75-1.75 1.75-4.25 0-2.45-1.75-4.2-1.75-1.8-4.25-1.8z" fill="#3d465d" transform="translate(55 648.2)"/><path d="m-27.65-15.5q-.85.2-1.2.9-.45.7-.25 1.55l1.05 3.85q.2.85.95 1.2.65.45 1.5.25l19.3-5.2q.8-.2 1.25-.95.4-.65.2-1.5l-1.05-3.85q-.2-.85-.9-1.25-.75-.4-1.55-.2z" fill="#3d465d" transform="translate(55 648.2)"/><path d="m8.35-20.7q-.8-.2-1.55.2-.7.4-.9 1.25l-1.05 3.85q-.2.85.2 1.5.45.75 1.25.95l19.3 5.2q.85.2 1.5-.25.75-.35.95-1.2l1.05-3.85q.2-.85-.25-1.55-.35-.7-1.2-.9z" fill="#3d465d" transform="translate(55 648.2)"/><path d="m9.35 17.3q-.55-.45-1.15-.9-3.4-2.6-8.2-2.6-4.9 0-8.35 2.6 0 .05-.05.05-.65.5-1.1 1.05-.55.6-.5 1.45.05.8.7 1.35.6.55 1.45.5.8-.05 1.35-.65.25-.3.55-.55 2.45-1.8 5.95-1.8 3.4 0 5.8 1.8l.05.05q.45.3.85.65.6.55 1.45.5.8-.05 1.35-.65.55-.65.5-1.45-.05-.85-.65-1.4z" fill="#3d465d" transform="translate(55 648.2)"/><path d="m18.8-3.55q-1.15-1.45-2.7-1.45-16.5 4.15-32.3 0-1.55 0-2.7 1.45-1.1 1.45-1.1 3.45v.25q0 1.95 1.1 3.45 1.15 1.4 2.7 1.4 15.8-4.1 32.3 0 1.55 0 2.7-1.4 1.2-1.5 1.2-3.45v-.25q0-2-1.2-3.45z" fill="#fff" transform="translate(274 436)"/><path d="m6.75-.6q.4-.7.2-1.45-.25-.8-1-1.15-.7-.45-1.55-.2-.8.2-1.25.85-.4.55-1.15 1.05-1.85 1.15-4.35 1.15-1.15 0-2.15-.2-.85-.15-1.55.3-.7.35-.9 1.2-.2.75.3 1.45.4.6 1.3.8 1.35.3 3 .3 3.85 0 6.65-1.8l-.05.05q1.7-1.05 2.5-2.35z" fill="#3d465d" transform="translate(228 435.5)"/><path d="m8.2-.95q-3.4-2.55-8.2-2.55-4.9 0-8.35 2.6 0 .05-.05.05-.65.5-1.1 1-.55.65-.5 1.45.05.85.7 1.4.6.55 1.45.5.8-.05 1.35-.7.25-.25.55-.5 2.45-1.8 5.95-1.8 3.4 0 5.8 1.8h.05q.45.35.85.7.6.55 1.45.5.8-.05 1.35-.7.55-.6.5-1.45-.05-.8-.65-1.35-.55-.45-1.15-.9z" fill="#3d465d" transform="translate(195 435.5)"/><path d="m10-1.35q.05-.85-.5-1.45-.55-.65-1.35-.7-.85-.05-1.45.5-.4.35-.85.7h-.05q-2.4 1.8-5.8 1.8-3.5 0-5.95-1.8-.3-.25-.55-.5-.55-.65-1.35-.7-.85-.05-1.45.5-.65.55-.7 1.4-.05.8.5 1.45.45.5 1.1 1 .05 0 .05.05 3.45 2.6 8.35 2.6 4.8 0 8.2-2.55v-.05q.6-.45 1.15-.9.6-.55.65-1.35z" fill="#3d465d" transform="translate(155 435.5)"/><path d="m9.45-1.9q-.6-.6-1.45-.6h-16q-.85 0-1.4.6-.6.55-.6 1.4v1q0 .85.6 1.45.55.55 1.4.55h16q.85 0 1.45-.55.55-.6.55-1.45v-1q0-.85-.55-1.4z" fill="#3d465d" transform="translate(80 392.5)"/><path d="m8.85-3.3q-.5-.25-1.1-.15l-16 1.95q-.75.05-1.25.6-.5.55-.5 1.25v1.2q0 .85.6 1.4.55.55 1.4.55h16q.85 0 1.45-.55.55-.55.55-1.4v-3.1q0-.6-.3-1.05-.35-.45-.85-.7z" fill="#3d465d" transform="translate(110 391.5)"/><path d="m7.5-1.5q0-.4-.3-.7-.3-.3-.7-.3-7.31796875-.12402344-13.25 2.35-.35.05-.55.35-.2.25-.2.6v.7q0 .4.3.7.3.3.7.3h13q.4 0 .7-.3.3-.3.3-.7z" fill="#3d465d" transform="translate(137.5 392.5)"/><path d="m9.45-3.4q-.6-.6-1.45-.6h-16q-.85 0-1.4.6-.6.55-.6 1.4v4q0 .85.6 1.45.55.55 1.4.55h16q.85 0 1.45-.55.55-.6.55-1.45v-4q0-.85-.55-1.4z" fill="#3d465d" transform="translate(165 391)"/><path d="m5.7-2.7q.9.55 1.7 1.35 2.6 2.6 2.6 6.35l3.9-3.85q1.35-1.5-1-1.5-2.9.15-7.2-2.35z" fill="#3d465d" transform="translate(70 435)"/><path d="m7.05-2.05q-2.9-2.95-7.05-2.95-4.15 0-7.05 2.95-2.95 2.9-2.95 7.05h20q0-4.15-2.95-7.05z" fill="#fff" transform="translate(70 435)"/><g fill="#3d465d"><path d="m6 5q0-2.5-1.75-4.25-1.75-1.75-4.25-1.75-2.45 0-4.2 1.75-1.8 1.75-1.8 4.25z" transform="translate(70 435)"/><path d="m-23.5-10.2q.65.4 1.5.2l15.45-4.15q.8-.2 1.25-.9.35-.7.1-1.55l-.25-.95q-.2-.85-.85-1.2-.75-.45-1.55-.25l-15.45 4.15q-.85.2-1.2.95-.45.65-.25 1.5l.25.95q.25.85 1 1.25z" transform="translate(145 649.95)"/><path d="m5.35-15q.4.7 1.2.9l15.45 4.15q.85.2 1.55-.15.7-.45.95-1.3l.25-.95q.2-.85-.2-1.45-.4-.8-1.25-1l-15.45-4.15q-.8-.2-1.5.25-.7.35-.9 1.2l-.25.95q-.25.85.15 1.55z" transform="translate(145 649.95)"/><path d="m-23-5.95q0 .85.6 1.45l4.55 4.55-4.55 4.6q-.6.55-.6 1.4 0 .85.6 1.45.55.55 1.4.55.85 0 1.45-.55l4.55-4.6 4.6 4.6q.55.55 1.4.55.85 0 1.45-.55.55-.6.55-1.45 0-.85-.55-1.4l-4.6-4.6 4.6-4.55q.55-.6.55-1.45 0-.85-.55-1.4-.6-.6-1.45-.6-.85 0-1.4.6l-4.6 4.55-4.55-4.55q-.6-.6-1.45-.6-.85 0-1.4.6-.6.55-.6 1.4m30 0q0 .85.6 1.45l4.55 4.55-4.55 4.6q-.6.55-.6 1.4 0 .85.6 1.45.55.55 1.4.55.85 0 1.45-.55l4.55-4.6 4.6 4.6q.55.55 1.4.55.85 0 1.45-.55.55-.6.55-1.45 0-.85-.55-1.4l-4.6-4.6 4.6-4.55q.55-.6.55-1.45 0-.85-.55-1.4-.6-.6-1.45-.6-.85 0-1.4.6l-4.6 4.55-4.55-4.55q-.6-.6-1.45-.6-.85 0-1.4.6-.6.55-.6 1.4z" transform="translate(145 649.95)"/><path d="m5.85 17.9q.45.3.85.65.6.55 1.45.5.8-.05 1.35-.65.55-.65.5-1.45-.05-.85-.65-1.4-.55-.45-1.15-.9-3.4-2.6-8.2-2.6-4.9 0-8.35 2.6 0 .05-.05.05-.65.5-1.1 1.05-.55.6-.5 1.45.05.8.7 1.35.6.55 1.45.5.8-.05 1.35-.65.25-.3.55-.55 2.45-1.8 5.95-1.8 3.4 0 5.8 1.8z" transform="translate(145 649.95)"/><path d="m10 17.7q-.05-.85-.65-1.4-.55-.45-1.15-.9-3.4-2.6-8.2-2.6-4.9 0-8.35 2.6 0 .05-.05.05-.65.5-1.1 1.05-.55.6-.5 1.45.05.8.7 1.35.6.55 1.45.5.8-.05 1.35-.65.25-.3.55-.55 2.45-1.8 5.95-1.8 3.4 0 5.8 1.8l.05.05q.45.3.85.65.6.55 1.45.5.8-.05 1.35-.65.55-.65.5-1.45z" transform="translate(235 649.2)"/><path d="m-25.65-14.5q-.85.2-1.2.9-.45.7-.25 1.55l1.05 3.85q.2.85.95 1.2.65.45 1.5.25l19.3-5.2q.8-.2 1.25-.95.4-.65.2-1.5l-1.05-3.85q-.2-.85-.9-1.25-.75-.4-1.55-.2z" transform="translate(235 649.2)"/><path d="m6.35-19.7q-.8-.2-1.55.2-.7.4-.9 1.25l-1.05 3.85q-.2.85.2 1.5.45.75 1.25.95l19.3 5.2q.85.2 1.5-.25.75-.35.95-1.2l1.05-3.85q.2-.85-.25-1.55-.35-.7-1.2-.9z" transform="translate(235 649.2)"/><path d="m-4.2-.1q-.4-.75-1.1-1-.8-.25-1.55.15-.75.35-1 1.15-.3.85-.7 1.6-.6.85-1.35 1.65-2.35 2.35-5.6 2.35-3.3 0-5.6-2.35-.8-.8-1.3-1.65-.45-.75-.65-1.55-.25-.8-.95-1.2-.75-.4-1.55-.15-.8.2-1.2.95-.4.7-.15 1.5.35 1.3 1.05 2.45v.05q.75 1.3 1.9 2.45 3.5 3.5 8.45 3.5 4.95 0 8.45-3.55v.05q1.05-1.15 1.9-2.4 0-.05.05-.1.6-1.15 1-2.35.25-.8-.1-1.55z" transform="translate(235 649.2)"/><path d="m25.8-.1q-.4-.75-1.1-1-.8-.25-1.55.15-.75.35-1 1.15-.3.85-.7 1.6-.6.85-1.35 1.65-2.35 2.35-5.6 2.35-3.3 0-5.6-2.35-.8-.8-1.3-1.65-.45-.75-.65-1.55-.25-.8-.95-1.2-.75-.4-1.55-.15-.8.2-1.2.95-.4.7-.15 1.5.35 1.3 1.05 2.45v.05q.75 1.3 1.9 2.45 3.5 3.5 8.45 3.5 4.95 0 8.45-3.55v.05q1.05-1.15 1.9-2.4 0-.05.05-.1.6-1.15 1-2.35.25-.8-.1-1.55z" transform="translate(235 649.2)"/><path d="m10 11.75q-.55-.65-1.35-.7-.85-.05-1.45.5-.4.35-.85.7h-.05q-2.4 1.8-5.8 1.8-3.5 0-5.95-1.8-.3-.25-.55-.5-.55-.65-1.35-.7-.85-.05-1.45.5-.65.55-.7 1.4-.05.8.5 1.45.45.5 1.1 1 .05 0 .05.05 3.45 2.6 8.35 2.6 4.8 0 8.2-2.55v-.05q.6-.45 1.15-.9.6-.55.65-1.35.05-.85-.5-1.45z" transform="translate(324.5 650.95)"/><path d="m-23-9.2q.65.4 1.5.2l15.45-4.15q.8-.2 1.25-.9.35-.7.1-1.55l-.25-.95q-.2-.85-.85-1.2-.75-.45-1.55-.25l-15.45 4.15q-.85.2-1.2.95-.45.65-.25 1.5l.25.95q.25.85 1 1.25z" transform="translate(324.5 650.95)"/><path d="m5.85-14q.4.7 1.2.9l15.45 4.15q.85.2 1.55-.15.7-.45.95-1.3l.25-.95q.2-.85-.2-1.45-.4-.8-1.25-1l-15.45-4.15q-.8-.2-1.5.25-.7.35-.9 1.2l-.25.95q-.25.85.15 1.55z" transform="translate(324.5 650.95)"/><path d="m-15-4.95q-4.95 0-8.45 3.5-1.15 1.15-1.9 2.45v.05q-.7 1.15-1.05 2.45-.25.8.15 1.5.4.75 1.2.95.8.25 1.55-.15.7-.4.95-1.2.2-.8.65-1.55.5-.85 1.3-1.65 2.3-2.35 5.6-2.35 3.25 0 5.6 2.35.75.8 1.35 1.65.4.75.7 1.6.25.8 1 1.15.75.4 1.55.15.7-.25 1.1-1 .35-.75.1-1.55-.4-1.2-1-2.35-.05-.05-.05-.1-.85-1.25-1.9-2.4v.05q-3.5-3.55-8.45-3.55z" transform="translate(324.5 650.95)"/><path d="m15-4.95q-4.95 0-8.45 3.5-1.15 1.15-1.9 2.45v.05q-.7 1.15-1.05 2.45-.25.8.15 1.5.4.75 1.2.95.8.25 1.55-.15.7-.4.95-1.2.2-.8.65-1.55.5-.85 1.3-1.65 2.3-2.35 5.6-2.35 3.25 0 5.6 2.35.75.8 1.35 1.65.4.75.7 1.6.25.8 1 1.15.75.4 1.55.15.7-.25 1.1-1 .35-.75.1-1.55-.4-1.2-1-2.35-.05-.05-.05-.1-.85-1.25-1.9-2.4v.05q-3.5-3.55-8.45-3.55z" transform="translate(324.5 650.95)"/></g><path d="m18.35 73.5q-6.3-16.1-8-40h-20q-1.7 23.9-8 40z" fill="url(#a9)" transform="translate(537.65 596.5)"/><path d="m-45.65 19.6q-3.95 4.3 0 8.6 15.95 14.95 45.7 15.4 29.75-.45 45.7-15.4 3.95-4.3 0-8.6-15.5-15.35-25.7-36h-40q-10.2 20.65-25.7 36z" fill="url(#ba)" transform="translate(537.65 596.5)"/><path d="m31.6-24.8q-.85-.8-1.65-1.65-15-14.2-27.9-44.95-2.15-4.15-4.1 0-12.9 30.75-27.9 44.95-.8.85-1.65 1.65-2.7 3 0 5.95 11.05 10.35 31.6 10.65 20.55-.3 31.6-10.65 2.7-2.95 0-5.95z" fill="#d0dce9" transform="translate(537.65 596.5)"/><path d="m16.65-9.35q4.05-1.85 7.2-4.75 2.05-2.2 0-4.4-.65-.6-1.25-1.25-11.35-10.65-21.05-33.65-1.65-3.15-3.15 0-9.7 23-21.05 33.65-.6.65-1.25 1.25-2 2.2 0 4.4 3.1 2.9 7.3 4.8-7.3 13.6-17.9 24-3 3.2 0 6.45 9.8 9.05 26.5 11-1.55 13.3-5.35 22.85h27.15q-3.75-9.55-5.3-22.9 16.35-2 26-10.95 3.05-3.25 0-6.45-10.55-10.4-17.85-24.05z" fill="#d0dce9" transform="translate(446 615)"/><g transform="translate(650 630)"><path d="m40-26q-.25-10-10.55-10h-58.95q-10.25 0-10.5 10v55.95q.25 10.05 10.5 10.05h58.95q10.3 0 10.55-10.05zm-20.55 10.5q-1.45-1.45-1.45-3.5 0-2.05 1.45-3.55 1.5-1.45 3.55-1.45 2.05 0 3.5 1.45 1.5 1.5 1.5 3.55 0 2.05-1.5 3.5-1.45 1.5-3.5 1.5-2.05 0-3.55-1.5m3.55 33.5q2.05 0 3.5 1.45 1.5 1.5 1.5 3.55 0 2.05-1.5 3.5-1.45 1.5-3.5 1.5-2.05 0-3.55-1.5-1.45-1.45-1.45-3.5 0-2.05 1.45-3.55 1.5-1.45 3.55-1.45m-46-32q-2.05 0-3.55-1.5-1.45-1.45-1.45-3.5 0-2.05 1.45-3.55 1.5-1.45 3.55-1.45 2.05 0 3.5 1.45 1.5 1.5 1.5 3.55 0 2.05-1.5 3.5-1.45 1.5-3.5 1.5m3.5 33.45q1.5 1.5 1.5 3.55 0 2.05-1.5 3.5-1.45 1.5-3.5 1.5-2.05 0-3.55-1.5-1.45-1.45-1.45-3.5 0-2.05 1.45-3.55 1.5-1.45 3.55-1.45 2.05 0 3.5 1.45z" fill="url(#bc)"/><path d="m-18 23q0-2.05-1.5-3.55-1.45-1.45-3.5-1.45-2.05 0-3.55 1.45-1.45 1.5-1.45 3.55 0 2.05 1.45 3.5 1.5 1.5 3.55 1.5 2.05 0 3.5-1.5 1.5-1.45 1.5-3.5m-8.55-38.5q1.5 1.5 3.55 1.5 2.05 0 3.5-1.5 1.5-1.45 1.5-3.5 0-2.05-1.5-3.55-1.45-1.45-3.5-1.45-2.05 0-3.55 1.45-1.45 1.5-1.45 3.55 0 2.05 1.45 3.5m53.05 34.95q-1.45-1.45-3.5-1.45-2.05 0-3.55 1.45-1.45 1.5-1.45 3.55 0 2.05 1.45 3.5 1.5 1.5 3.55 1.5 2.05 0 3.5-1.5 1.5-1.45 1.5-3.5 0-2.05-1.5-3.55m-8.5-38.45q0 2.05 1.45 3.5 1.5 1.5 3.55 1.5 2.05 0 3.5-1.5 1.5-1.45 1.5-3.5 0-2.05-1.5-3.55-1.45-1.45-3.5-1.45-2.05 0-3.55 1.45-1.45 1.5-1.45 3.55z" fill="#9aadc2"/><path d="m40-29.5q0-10.5-10.55-10.5h-58.95q-10.5 0-10.5 10.5v3.5q.25-10 10.5-10h58.95q10.3 0 10.55 10z" fill="#d2dfee"/></g><g transform="translate(740 630)"><path d="m40-26q-.25-10-10.55-10h-58.95q-10.25 0-10.5 10v55.95q.25 10.05 10.5 10.05h58.95q10.3 0 10.55-10.05zm-22 7q0-2.05 1.45-3.55 1.5-1.45 3.55-1.45 2.05 0 3.5 1.45 1.5 1.5 1.5 3.55 0 2.05-1.5 3.5-1.45 1.5-3.5 1.5-2.05 0-3.55-1.5-1.45-1.45-1.45-3.5m-18 4q2.05 0 3.5 1.45 1.5 1.5 1.5 3.55v10q0 2.05-1.5 3.5-1.45 1.5-3.5 1.5-2.05 0-3.55-1.5-1.45-1.45-1.45-3.5v-10q0-2.05 1.45-3.55 1.5-1.45 3.55-1.45m26.5 34.45q1.5 1.5 1.5 3.55 0 2.05-1.5 3.5-1.45 1.5-3.5 1.5-2.05 0-3.55-1.5-1.45-1.45-1.45-3.5 0-2.05 1.45-3.55 1.5-1.45 3.55-1.45 2.05 0 3.5 1.45m-23-10q1.5 1.5 1.5 3.55 0 2.05-1.5 3.5-1.45 1.5-3.5 1.5-2.05 0-3.55-1.5-1.45-1.45-1.45-3.5 0-2.05 1.45-3.55 1.5-1.45 3.55-1.45 2.05 0 3.5 1.45m-30.05-32q1.5-1.45 3.55-1.45 2.05 0 3.5 1.45 1.5 1.5 1.5 3.55 0 2.05-1.5 3.5-1.45 1.5-3.5 1.5-2.05 0-3.55-1.5-1.45-1.45-1.45-3.5 0-2.05 1.45-3.55m7.05 42q1.5 1.5 1.5 3.55 0 2.05-1.5 3.5-1.45 1.5-3.5 1.5-2.05 0-3.55-1.5-1.45-1.45-1.45-3.5 0-2.05 1.45-3.55 1.5-1.45 3.55-1.45 2.05 0 3.5 1.45z" fill="url(#D)"/><path d="m-18 23q0-2.05-1.5-3.55-1.45-1.45-3.5-1.45-2.05 0-3.55 1.45-1.45 1.5-1.45 3.55 0 2.05 1.45 3.5 1.5 1.5 3.55 1.5 2.05 0 3.5-1.5 1.5-1.45 1.5-3.5m-5-47q-2.05 0-3.55 1.45-1.45 1.5-1.45 3.55 0 2.05 1.45 3.5 1.5 1.5 3.55 1.5 2.05 0 3.5-1.5 1.5-1.45 1.5-3.5 0-2.05-1.5-3.55-1.45-1.45-3.5-1.45m51 47q0-2.05-1.5-3.55-1.45-1.45-3.5-1.45-2.05 0-3.55 1.45-1.45 1.5-1.45 3.55 0 2.05 1.45 3.5 1.5 1.5 3.55 1.5 2.05 0 3.5-1.5 1.5-1.45 1.5-3.5m-8.55-45.55q-1.45 1.5-1.45 3.55 0 2.05 1.45 3.5 1.5 1.5 3.55 1.5 2.05 0 3.5-1.5 1.5-1.45 1.5-3.5 0-2.05-1.5-3.55-1.45-1.45-3.5-1.45-2.05 0-3.55 1.45z" fill="#ec9d17"/><path d="m5 13q0-2.05-1.5-3.55-1.45-1.45-3.5-1.45-2.05 0-3.55 1.45-1.45 1.5-1.45 3.55 0 2.05 1.45 3.5 1.5 1.5 3.55 1.5 2.05 0 3.5-1.5 1.5-1.45 1.5-3.5m-1.5-26.55q-1.45-1.45-3.5-1.45-2.05 0-3.55 1.45-1.45 1.5-1.45 3.55v10q0 2.05 1.45 3.5 1.5 1.5 3.55 1.5 2.05 0 3.5-1.5 1.5-1.45 1.5-3.5v-10q0-2.05-1.5-3.55z" fill="#fff"/><path d="m40-29.5q0-10.5-10.55-10.5h-58.95q-10.5 0-10.5 10.5v3.5q.25-10 10.5-10h58.95q10.3 0 10.55 10z" fill="url(#F)"/></g><g transform="translate(810 610)"><path d="m14.15-14.1q-5.9-5.9-14.15-5.9-8.25 0-14.15 5.9-5.85 5.85-5.85 14.1 0 8.3 5.85 14.15 5.9 5.85 14.15 5.85 8.25 0 14.15-5.85 5.85-5.85 5.85-14.15 0-8.25-5.85-14.1m-14.15 4.1q4.15 0 7.1 2.95 2.9 2.95 2.9 7.05 0 4.15-2.9 7.1-2.95 2.9-7.1 2.9-4.1 0-7.05-2.9-2.95-2.95-2.95-7.1 0-4.1 2.95-7.05 2.95-2.95 7.05-2.95z" fill="url(#be)"/><path d="m7.1-7.05q-2.95-2.95-7.1-2.95-4.1 0-7.05 2.95-2.95 2.95-2.95 7.05 0 4.15 2.95 7.1 2.95 2.9 7.05 2.9 4.15 0 7.1-2.9 2.9-2.95 2.9-7.1 0-4.1-2.9-7.05z" fill="url(#bf)"/></g><path d="m7.05-14.15q-2.9-5.85-7.05-5.85-4.15 0-7.1 5.85-1.2 2.4-1.85 5.2-2.8.65-5.15 1.85-5.9 2.95-5.9 7.1 0 4.15 5.9 7.05 2.35 1.2 5.15 1.9.65 2.8 1.85 5.15 2.95 5.9 7.1 5.9 4.15 0 7.05-5.9 1.2-2.35 1.95-5.15 2.75-.7 5.15-1.9 5.85-2.9 5.85-7.05 0-4.15-5.85-7.1-2.4-1.2-5.2-1.85-.7-2.8-1.9-5.2z" fill="#fff" transform="translate(860 610)"/><g transform="translate(650 560)"><path d="m40 10v-10h-80v10q.3 10 10.5 10h58.95q10.25 0 10.55-10z" fill="url(#bg)"/><path d="m40-6q-.25-10-10.55-10h-58.95q-10.25 0-10.5 10v6h80z" fill="url(#bh)"/><path d="m40-9.5q0-10.5-10.55-10.5h-58.95q-10.5 0-10.5 10.5v3.5q.25-10 10.5-10h58.95q10.3 0 10.55 10z" fill="url(#bi)"/></g><g transform="translate(740 560)"><path d="m40 0v-16h-69.5q-10.25 0-10.5 10v6z" fill="url(#bh)"/><path d="m40 20v-20h-80v10q.3 10 10.5 10z" fill="url(#bg)"/><path d="m40-16v-4h-69.5q-10.5 0-10.5 10.5v3.5q.25-10 10.5-10z" fill="url(#bi)"/></g><g transform="translate(830 560)"><path d="m40 0v-16h-80v16z" fill="url(#bj)"/><path d="m40 20v-20h-80v20z" fill="url(#bk)"/><path d="m40-16v-4h-80v4z" fill="url(#bl)"/></g><g transform="translate(920 560)"><path d="m40 10v-10h-80v20h69.5q10.2 0 10.5-10z" fill="url(#bg)"/><path d="m40-6q-.25-10-10.5-10h-69.5v16h80z" fill="url(#bh)"/><path d="m40-6v-3.5q0-10.5-10.5-10.5h-69.5v4h69.5q10.25 0 10.5 10z" fill="url(#bm)"/></g><g transform="translate(650 490)"><path d="m29.45 40q10.3 0 10.55-10.05v-39.95h-80v39.95q.25 10.05 10.5 10.05zm-6.45-22q2.05 0 3.5 1.45 1.5 1.5 1.5 3.55 0 2.05-1.5 3.5-1.45 1.5-3.5 1.5-2.05 0-3.55-1.5-1.45-1.45-1.45-3.5 0-2.05 1.45-3.55 1.5-1.45 3.55-1.45m-42.5 1.45q1.5 1.5 1.5 3.55 0 2.05-1.5 3.5-1.45 1.5-3.5 1.5-2.05 0-3.55-1.5-1.45-1.45-1.45-3.5 0-2.05 1.45-3.55 1.5-1.45 3.55-1.45 2.05 0 3.5 1.45z" fill="url(#bn)"/><path d="m-18 23q0-2.05-1.5-3.55-1.45-1.45-3.5-1.45-2.05 0-3.55 1.45-1.45 1.5-1.45 3.55 0 2.05 1.45 3.5 1.5 1.5 3.55 1.5 2.05 0 3.5-1.5 1.5-1.45 1.5-3.5m44.5-3.55q-1.45-1.45-3.5-1.45-2.05 0-3.55 1.45-1.45 1.5-1.45 3.55 0 2.05 1.45 3.5 1.5 1.5 3.55 1.5 2.05 0 3.5-1.5 1.5-1.45 1.5-3.5 0-2.05-1.5-3.55z" fill="#a4b9d1"/><path d="m40-26q-.25-10-10.55-10h-58.95q-10.25 0-10.5 10v16h80z" fill="url(#bo)"/><path d="m40-29.5q0-10.5-10.55-10.5h-58.95q-10.5 0-10.5 10.5v3.5q.25-10 10.5-10h58.95q10.3 0 10.55 10z" fill="url(#F)"/></g><g transform="translate(740 490)"><path d="m40 40v-50h-80v39.95q.25 10.05 10.5 10.05zm-59.5-20.55q1.5 1.5 1.5 3.55 0 2.05-1.5 3.5-1.45 1.5-3.5 1.5-2.05 0-3.55-1.5-1.45-1.45-1.45-3.5 0-2.05 1.45-3.55 1.5-1.45 3.55-1.45 2.05 0 3.5 1.45z" fill="url(#bn)"/><path d="m-18 23q0-2.05-1.5-3.55-1.45-1.45-3.5-1.45-2.05 0-3.55 1.45-1.45 1.5-1.45 3.55 0 2.05 1.45 3.5 1.5 1.5 3.55 1.5 2.05 0 3.5-1.5 1.5-1.45 1.5-3.5z" fill="#a4b9d1"/><path d="m40-36v-4h-69.5q-10.5 0-10.5 10.5v3.5q.25-10 10.5-10z" fill="url(#F)"/><path d="m40-10v-26h-69.5q-10.25 0-10.5 10v16z" fill="url(#bo)"/></g><g transform="translate(830 490)"><path d="m40 40v-50h-80v50z" fill="url(#bp)"/><path d="m40-36v-4h-80v4z" fill="url(#bq)"/><path d="m40-10v-26h-80v26z" fill="url(#br)"/></g><g transform="translate(920 490)"><path d="m29.5 40q10.25 0 10.5-10.05v-39.95h-80v50zm-6.5-22q2.05 0 3.5 1.45 1.5 1.5 1.5 3.55 0 2.05-1.5 3.5-1.45 1.5-3.5 1.5-2.05 0-3.55-1.5-1.45-1.45-1.45-3.5 0-2.05 1.45-3.55 1.5-1.45 3.55-1.45z" fill="url(#bn)"/><path d="m26.5 19.45q-1.45-1.45-3.5-1.45-2.05 0-3.55 1.45-1.45 1.5-1.45 3.55 0 2.05 1.45 3.5 1.5 1.5 3.55 1.5 2.05 0 3.5-1.5 1.5-1.45 1.5-3.5 0-2.05-1.5-3.55z" fill="#a4b9d1"/><path d="m40-26v-3.5q0-10.5-10.5-10.5h-69.5v4h69.5q10.25 0 10.5 10z" fill="url(#bs)"/><path d="m40-10v-16q-.25-10-10.5-10h-69.5v26z" fill="url(#bo)"/></g><g transform="translate(1010 490)"><path d="m39.25-33.25q.3.3.55.6-.55-2.6-2.55-4.6-2.75-2.75-6.6-2.75-3.8 0-6.55 2.75l-61.4 61.35q-2.7 2.75-2.7 6.6 0 3.45 2.2 6-.2-.95-.2-2 0-3.85 2.7-6.6l61.4-61.35q2.75-2.75 6.55-2.75 3.85 0 6.6 2.75z" fill="url(#bt)"/><path d="m39.8-32.65q-.25-.3-.55-.6-2.75-2.75-6.6-2.75-3.8 0-6.55 2.75l-61.4 61.35q-2.7 2.75-2.7 6.6 0 1.05.2 2 .25.3.5.55 2.75 2.75 6.6 2.75h61.35q3.85 0 6.6-2.75 2.75-2.75 2.75-6.55v-61.4q0-1-.2-1.95m-13.3 52.1q1.5 1.5 1.5 3.55 0 2.05-1.5 3.5-1.45 1.5-3.5 1.5-2.05 0-3.55-1.5-1.45-1.45-1.45-3.5 0-2.05 1.45-3.55 1.5-1.45 3.55-1.45 2.05 0 3.5 1.45z" fill="url(#e)"/><path d="m28 23q0-2.05-1.5-3.55-1.45-1.45-3.5-1.45-2.05 0-3.55 1.45-1.45 1.5-1.45 3.55 0 2.05 1.45 3.5 1.5 1.5 3.55 1.5 2.05 0 3.5-1.5 1.5-1.45 1.5-3.5z" fill="#eb7086"/></g><g transform="translate(1100 490)"><path d="m-39.25-33.25q-.3.3-.55.6-.2.95-.2 1.95v61.4q0 3.8 2.75 6.55 2.75 2.75 6.6 2.75h61.35q3.85 0 6.6-2.75.25-.25.5-.55.2-.95.2-2 0-3.85-2.7-6.6l-61.4-61.35q-2.75-2.75-6.55-2.75-3.85 0-6.6 2.75m19.75 52.7q1.5 1.5 1.5 3.55 0 2.05-1.5 3.5-1.45 1.5-3.5 1.5-2.05 0-3.55-1.5-1.45-1.45-1.45-3.5 0-2.05 1.45-3.55 1.5-1.45 3.55-1.45 2.05 0 3.5 1.45z" fill="url(#bu)"/><path d="m-18 23q0-2.05-1.5-3.55-1.45-1.45-3.5-1.45-2.05 0-3.55 1.45-1.45 1.5-1.45 3.55 0 2.05 1.45 3.5 1.5 1.5 3.55 1.5 2.05 0 3.5-1.5 1.5-1.45 1.5-3.5z" fill="#eb7086"/><path d="m-37.25-37.25q-2 2-2.55 4.6.25-.3.55-.6 2.75-2.75 6.6-2.75 3.8 0 6.55 2.75l61.4 61.35q2.7 2.75 2.7 6.6 0 1.05-.2 2 2.2-2.55 2.2-6 0-3.85-2.7-6.6l-61.4-61.35q-2.75-2.75-6.55-2.75-3.85 0-6.6 2.75z" fill="url(#bv)"/></g><path d="m6.5-7.25q-3.55 2.25-6.5 6.4-2.9-4.25-6.5-6.55-4.25-2.55-7-1.05-2.8 1.45-2.45 6.2.3 4.7 3.5 9.9.5.8 1.05 1.35h22.85q.55-.55.95-1.25 3.25-5.2 3.55-9.9.35-4.75-2.45-6.25-2.75-1.45-7 1.15z" fill="#d0dce9" transform="translate(491 661)"/><path d="m16.95-7.1q-7-2.9-16.95-2.9-9.95 0-17 2.9-7 2.95-7 7.1 0 4.1 7 7.05 7.05 2.95 17 2.95 9.95 0 16.95-2.95 7.05-2.95 7.05-7.05 0-4.15-7.05-7.1z" fill="#58697b" fill-opacity=".098039" transform="translate(445 522)"/><path d="m8.45-1.95q-3.5-3.55-8.45-3.55-4.95 0-8.45 3.5-1.15 1.15-1.9 2.45v.05q-.7 1.15-1.05 2.45-.25.8.15 1.5.4.75 1.2.95.8.25 1.55-.15.7-.4.95-1.2.2-.8.65-1.55.5-.85 1.3-1.65 2.3-2.35 5.6-2.35 3.25 0 5.6 2.35.75.8 1.35 1.65.4.75.7 1.6.25.8 1 1.15.75.4 1.55.15.7-.25 1.1-1 .35-.75.1-1.55-.4-1.2-1-2.35-.05-.05-.05-.1-.85-1.25-1.9-2.4z" fill="#3d465d" transform="translate(99.5 463.5)"/><path d="m10.4-.5q.6-1.15 1-2.35.25-.8-.1-1.55-.4-.75-1.1-1-.8-.25-1.55.15-.75.35-1 1.15-.3.85-.7 1.6-.6.85-1.35 1.65-2.35 2.35-5.6 2.35-3.3 0-5.6-2.35-.8-.8-1.3-1.65-.45-.75-.65-1.55-.25-.8-.95-1.2-.75-.4-1.55-.15-.8.2-1.2.95-.4.7-.15 1.5.35 1.3 1.05 2.45v.05q.75 1.3 1.9 2.45 3.5 3.5 8.45 3.5 4.95 0 8.45-3.55v.05q1.05-1.15 1.9-2.4 0-.05.05-.1z" fill="#3d465d" transform="translate(69.5 463.5)"/></svg>